<?xml version="1.0" standalone="no"?>
<!DOCTYPE svg PUBLIC "-//W3C//DTD SVG 20010904//EN"
 "http://www.w3.org/TR/2001/REC-SVG-20010904/DTD/svg10.dtd">
<svg version="1.0" xmlns="http://www.w3.org/2000/svg"
 width="566.000000pt" height="236.000000pt" viewBox="0 0 566.000000 236.000000"
 preserveAspectRatio="xMidYMid meet">

<g transform="translate(0.000000,236.000000) scale(0.100000,-0.100000)"
fill="#000000" stroke="none">
<path d="M1048 2255 c-279 -45 -532 -208 -697 -449 -38 -54 -104 -185 -126
-245 -13 -38 -13 -42 1 -39 8 2 30 40 48 85 85 208 257 400 457 512 412 230
951 121 1248 -253 55 -69 124 -178 135 -213 7 -23 7 -23 -113 -23 l-119 0 -23
38 c-77 125 -254 260 -409 310 -323 105 -672 -3 -876 -272 -69 -90 -119 -183
-102 -188 8 -3 31 29 58 76 63 113 197 246 305 303 130 67 193 84 335 90 133
5 200 -5 313 -47 116 -43 273 -168 348 -277 l29 -42 0 -454 0 -455 -44 -58
c-246 -331 -700 -411 -1036 -184 -124 84 -235 218 -293 355 -27 64 -55 90 -43
39 11 -43 73 -163 112 -216 104 -141 285 -265 451 -309 108 -29 278 -29 388 0
156 41 313 140 409 257 l51 63 5 -92 5 -92 59 -5 59 -5 -84 -80 c-206 -197
-428 -289 -699 -287 -211 0 -389 56 -559 175 -180 126 -335 336 -402 545 -21
66 -39 93 -39 58 0 -31 54 -176 92 -246 142 -266 381 -456 666 -532 97 -25
302 -35 398 -19 150 26 289 81 419 166 60 39 255 227 255 245 0 6 -31 10 -70
10 l-70 0 0 550 0 550 135 0 c86 0 135 4 135 10 0 20 -69 146 -119 217 -226
321 -618 490 -993 428z"/>
<path d="M3760 1120 l0 -430 90 0 90 0 0 175 0 175 245 0 c262 0 291 4 344 53
45 42 61 93 61 202 0 76 -5 110 -19 140 -22 50 -69 91 -119 105 -22 6 -170 10
-364 10 l-328 0 0 -430z m640 170 l0 -100 -230 0 -230 0 0 100 0 100 230 0
230 0 0 -100z"/>
<path d="M2105 1521 c-50 -22 -91 -69 -105 -119 -13 -49 -13 -575 0 -624 14
-50 55 -97 105 -119 36 -17 71 -19 368 -19 l327 0 0 75 0 75 -315 0 -315 0 0
110 0 110 315 0 315 0 0 80 0 80 -317 2 -318 3 -3 108 -3 107 321 0 320 0 0
75 0 75 -327 0 c-297 0 -332 -2 -368 -19z"/>
<path d="M2960 1535 c0 -3 18 -34 39 -68 62 -99 221 -377 221 -387 0 -5 -58
-100 -128 -212 -70 -112 -131 -209 -136 -215 -5 -10 15 -13 88 -13 l96 0 37
60 c21 33 61 97 89 141 l51 80 58 -98 c140 -234 238 -359 380 -486 192 -171
360 -264 557 -309 115 -25 371 -31 488 -9 181 32 366 111 506 214 71 52 243
220 304 297 34 43 33 42 -61 -27 -218 -161 -418 -260 -622 -305 -88 -20 -130
-23 -302 -23 -227 0 -270 8 -408 74 -197 95 -345 212 -487 386 -50 61 -300
445 -300 460 0 3 61 102 135 220 74 118 135 217 135 220 0 3 -42 5 -93 5 l-93
0 -91 -146 -92 -146 -43 69 c-24 37 -66 103 -92 146 l-48 77 -94 0 c-52 0 -94
-2 -94 -5z"/>
<path d="M4782 1532 c-38 -12 -93 -63 -113 -106 -17 -37 -19 -69 -19 -309 0
-219 3 -274 15 -305 21 -49 52 -81 100 -103 36 -17 70 -19 355 -19 285 0 319
2 355 19 48 22 79 54 100 103 12 31 15 86 15 305 0 239 -2 272 -19 308 -22 48
-54 79 -103 100 -31 12 -89 15 -350 14 -172 -1 -323 -4 -336 -7z m648 -417 l0
-275 -310 0 -310 0 0 275 0 275 310 0 310 0 0 -275z"/>
<path d="M207 1493 c-5 -7 -21 -91 -30 -156 -7 -43 11 -43 18 0 4 21 13 63 21
94 8 31 14 60 14 63 0 9 -18 7 -23 -1z"/>
<path d="M431 1436 c-30 -98 -36 -136 -20 -136 9 0 21 29 34 83 27 114 28 117
16 117 -6 0 -19 -29 -30 -64z"/>
<path d="M170 1203 c0 -42 2 -74 4 -72 10 11 16 149 7 149 -7 0 -11 -29 -11
-77z"/>
<path d="M397 1274 c-4 -4 -7 -38 -7 -76 0 -51 3 -69 13 -66 7 3 13 28 15 68
3 59 -6 89 -21 74z"/>
<path d="M394 1097 c-6 -17 23 -168 36 -181 18 -18 20 0 5 70 -8 38 -15 81
-15 97 0 28 -17 37 -26 14z"/>
<path d="M174 1063 c3 -21 8 -64 11 -95 4 -32 11 -58 17 -58 6 0 8 10 4 23 -3
13 -9 56 -12 95 -4 40 -11 72 -16 72 -6 0 -7 -17 -4 -37z"/>
<path d="M4120 600 c0 -30 1 -30 55 -30 l55 0 0 -140 0 -140 25 0 25 0 0 140
0 140 55 0 c54 0 55 0 55 30 l0 30 -135 0 -135 0 0 -30z"/>
<path d="M4470 610 c-18 -18 -20 -33 -20 -150 0 -117 2 -132 20 -150 18 -18
33 -20 150 -20 l130 0 0 30 0 30 -120 0 -120 0 0 40 0 40 120 0 120 0 0 30 0
30 -120 0 -120 0 0 40 0 40 120 0 120 0 0 30 0 30 -130 0 c-117 0 -132 -2
-150 -20z"/>
<path d="M4840 610 c-18 -18 -20 -33 -20 -150 0 -117 2 -132 20 -150 18 -18
33 -20 150 -20 l130 0 0 30 0 30 -120 0 -120 0 0 110 0 110 120 0 120 0 0 30
0 30 -130 0 c-117 0 -132 -2 -150 -20z"/>
<path d="M2110 212 c0 -86 4 -132 12 -140 16 -16 220 -16 236 0 8 8 12 54 12
140 0 121 -1 128 -20 128 -19 0 -20 -7 -20 -115 l0 -115 -90 0 -90 0 0 115 c0
108 -1 115 -20 115 -19 0 -20 -7 -20 -128z"/>
<path d="M2430 200 c0 -133 1 -140 20 -140 18 0 20 8 22 105 l3 104 84 -104
c64 -79 90 -105 108 -105 23 0 23 0 23 140 0 133 -1 140 -20 140 -18 0 -20 -8
-22 -106 l-3 -106 -84 106 c-64 81 -90 106 -108 106 l-23 0 0 -140z"/>
<path d="M2827 328 c-13 -10 -87 -233 -87 -263 0 -4 10 -5 22 -3 15 2 25 13
32 36 l9 33 85 -3 86 -3 8 -33 c6 -22 14 -32 28 -32 26 0 26 4 -11 135 -19 70
-38 116 -51 128 -24 20 -96 23 -121 5z m114 -93 l16 -50 -65 -3 c-35 -2 -67
-1 -69 2 -4 4 1 26 23 94 2 9 17 12 41 10 36 -3 39 -6 54 -53z"/>
<path d="M3270 225 l0 -115 -75 0 c-73 0 -75 1 -75 25 0 18 -5 25 -20 25 -16
0 -20 -7 -20 -38 0 -55 12 -62 111 -62 120 0 119 -1 119 156 0 117 -1 124 -20
124 -19 0 -20 -7 -20 -115z"/>
</g>
</svg>
