<?xml version="1.0" standalone="no"?>
<!DOCTYPE svg PUBLIC "-//W3C//DTD SVG 20010904//EN"
 "http://www.w3.org/TR/2001/REC-SVG-20010904/DTD/svg10.dtd">
<svg version="1.0" xmlns="http://www.w3.org/2000/svg"
 width="1274.000000pt" height="469.000000pt" viewBox="0 0 1274.000000 469.000000"
 preserveAspectRatio="xMidYMid meet">
<metadata>
Created by potrace 1.16, written by Peter Selinger 2001-2019
</metadata>
<g transform="translate(0.000000,469.000000) scale(0.100000,-0.100000)"
fill="#000000" stroke="none">
<path d="M3903 4675 c-462 -46 -905 -184 -1413 -440 -268 -136 -475 -262 -720
-439 -109 -79 -164 -125 -157 -133 3 -2 49 7 103 21 312 79 514 75 755 -15
109 -41 109 -41 137 -23 16 11 87 58 158 105 369 248 720 421 1058 523 232 71
349 90 551 90 212 -1 282 -15 433 -90 181 -89 306 -256 348 -463 41 -210 -16
-523 -141 -774 -102 -204 -259 -397 -324 -397 -16 0 -28 87 -56 385 -29 300
-51 494 -61 520 -6 13 -28 15 -167 13 l-160 -3 -144 -260 c-80 -143 -330 -600
-556 -1015 -225 -415 -457 -840 -515 -945 -72 -129 -106 -199 -105 -220 0 -17
27 -77 64 -142 35 -62 84 -149 108 -193 24 -44 49 -80 55 -80 25 1 610 444
835 633 656 552 1105 1151 1300 1735 69 206 86 315 86 557 0 185 -3 221 -23
299 -77 304 -294 547 -596 666 -230 90 -512 118 -853 85z"/>
<path d="M6445 4608 c-2 -7 -16 -71 -30 -143 -23 -111 -139 -623 -160 -707
l-7 -28 76 0 c70 0 76 2 81 23 3 12 21 100 40 196 32 155 136 606 151 653 5
16 -2 18 -71 18 -52 0 -77 -4 -80 -12z"/>
<path d="M6810 4614 c0 -15 -116 -548 -151 -693 -21 -90 -39 -170 -39 -177 0
-12 44 -14 254 -14 l254 0 16 47 c9 26 16 50 16 55 0 4 -85 9 -188 10 l-188 3
26 120 c15 66 30 132 33 148 l7 27 170 0 170 0 11 45 c6 24 10 48 8 52 -2 4
-80 6 -172 4 l-168 -3 6 23 c3 13 17 73 31 134 14 60 30 113 37 117 7 5 86 5
177 2 l166 -7 12 40 c23 78 41 73 -238 73 -137 0 -250 -3 -250 -6z"/>
<path d="M7485 4598 c-3 -13 -19 -88 -36 -168 -59 -284 -133 -607 -155 -682
-5 -17 11 -18 249 -18 272 0 268 -1 281 52 3 14 9 33 12 42 5 14 -14 16 -185
16 l-190 0 6 33 c3 17 18 84 32 147 l26 115 171 3 171 2 11 39 c22 70 30 67
-158 63 -93 -3 -170 0 -170 4 1 36 60 258 71 265 8 5 84 6 176 3 l162 -7 11
29 c6 16 14 41 17 57 l6 27 -252 0 -251 0 -5 -22z"/>
<path d="M8165 4608 c-2 -7 -29 -132 -60 -278 -31 -146 -74 -339 -96 -429 -21
-90 -39 -165 -39 -167 0 -3 116 -3 258 -2 l257 3 16 50 16 50 -189 3 c-103 1
-188 6 -188 10 0 4 14 71 32 150 l31 142 169 0 168 0 11 28 c6 15 13 38 16 52
l5 26 -171 -4 c-94 -3 -171 0 -171 4 -1 15 53 259 58 264 2 3 83 5 179 5 l176
0 13 45 c8 25 14 48 14 53 0 4 -113 7 -250 7 -192 0 -252 -3 -255 -12z"/>
<path d="M1870 3585 c-108 -20 -250 -68 -367 -126 -154 -76 -363 -220 -363
-250 0 -23 85 -6 186 37 297 125 466 156 652 118 113 -23 190 -63 255 -134 66
-71 96 -142 103 -249 9 -112 -14 -202 -86 -346 -75 -150 -160 -264 -293 -392
-178 -169 -378 -290 -611 -369 l-114 -38 -7 -53 c-3 -29 -3 -77 0 -107 6 -45
13 -60 44 -89 20 -19 218 -181 441 -359 223 -178 540 -434 705 -569 165 -135
326 -266 358 -292 l58 -47 149 0 c81 0 155 3 164 6 9 3 16 18 16 32 0 15 -114
220 -284 511 -334 573 -506 871 -506 881 0 3 38 32 84 63 93 63 221 192 279
279 59 90 115 215 144 323 23 89 26 119 27 275 1 135 -3 195 -17 260 -74 342
-290 571 -599 634 -95 20 -312 20 -418 1z"/>
<path d="M7776 3559 c-54 -10 -100 -20 -101 -21 -1 -2 -12 -55 -24 -118 -25
-130 -117 -535 -162 -712 -16 -64 -29 -120 -29 -124 0 -3 87 -4 193 -2 219 6
281 20 366 82 181 133 222 462 70 563 -37 24 -52 28 -113 27 -63 0 -99 -10
-157 -41 -4 -2 13 74 37 169 24 95 44 179 44 186 0 14 1 14 -124 -9z m145
-459 c34 -19 52 -68 46 -130 -13 -144 -108 -249 -225 -250 -39 0 -42 2 -37 23
37 156 75 323 75 329 0 14 55 37 88 38 18 0 42 -5 53 -10z"/>
<path d="M9698 3536 c-37 -6 -70 -14 -73 -18 -11 -11 -43 -168 -36 -173 10 -6
204 24 212 33 8 8 39 135 39 157 0 18 -41 18 -142 1z"/>
<path d="M6193 3463 c-18 -2 -33 -5 -33 -6 0 -36 -65 -336 -135 -627 -30 -126
-55 -233 -55 -239 0 -7 38 -11 110 -11 61 0 110 2 110 5 0 17 62 305 70 323 8
18 17 23 38 20 26 -3 30 -12 86 -177 l59 -174 109 6 c61 3 112 8 115 11 3 3
-26 84 -66 180 -39 96 -71 178 -71 183 0 5 21 16 48 25 132 48 209 200 172
338 -15 55 -71 113 -125 130 -40 12 -368 22 -432 13z m297 -161 c88 -44 53
-179 -57 -216 -52 -18 -133 -21 -133 -6 0 16 49 221 56 231 9 15 97 10 134 -9z"/>
<path d="M9268 3441 c-53 -15 -101 -31 -106 -36 -5 -6 -14 -37 -21 -70 -20
-99 -18 -95 -66 -95 l-44 0 -19 -62 c-10 -35 -17 -66 -15 -70 2 -5 24 -8 47
-8 l43 0 -38 -157 c-43 -175 -50 -272 -23 -312 27 -38 90 -61 169 -60 111 1
117 4 139 82 10 37 17 69 14 72 -2 3 -19 0 -38 -5 -48 -14 -84 5 -88 48 -2 17
13 99 33 181 l37 150 60 3 61 3 23 68 23 67 -65 0 c-76 0 -74 -6 -40 128 13
50 21 93 17 95 -3 2 -50 -8 -103 -22z"/>
<path d="M11584 3416 c-114 -53 -153 -181 -95 -311 l19 -44 -73 -40 c-79 -44
-138 -103 -156 -158 -6 -19 -9 -63 -7 -98 5 -85 38 -134 113 -170 50 -25 63
-27 148 -23 78 3 101 8 153 34 l61 31 17 -28 17 -29 116 0 c132 0 127 -8 59
99 l-47 72 71 71 c39 39 75 78 80 87 6 12 -4 35 -33 84 -23 37 -45 67 -48 67
-3 0 -15 -17 -27 -37 -12 -21 -44 -62 -70 -92 l-49 -54 -41 72 c-23 40 -42 76
-41 79 0 4 28 25 62 47 83 54 119 101 125 163 6 65 -11 114 -53 151 -43 37
-91 51 -180 51 -53 0 -83 -6 -121 -24z m178 -113 c32 -29 23 -71 -24 -115 -23
-21 -45 -38 -50 -38 -13 0 -38 65 -38 100 0 58 69 92 112 53z m-134 -457 c23
-40 42 -76 42 -80 0 -12 -80 -46 -108 -46 -45 0 -82 34 -82 76 0 20 5 44 10
54 10 18 77 70 90 70 3 0 25 -33 48 -74z"/>
<path d="M7050 3245 c-114 -32 -192 -108 -242 -234 -17 -44 -22 -78 -22 -161
-1 -131 21 -186 93 -231 65 -42 112 -52 221 -47 79 3 105 8 152 31 105 51 175
154 199 291 38 222 -58 353 -266 362 -52 3 -99 -1 -135 -11z m174 -144 c25
-25 32 -103 16 -184 -32 -174 -142 -267 -221 -188 -25 26 -29 37 -29 86 0 132
57 271 123 301 38 17 85 11 111 -15z"/>
<path d="M8510 3245 c-114 -32 -192 -108 -242 -234 -17 -44 -22 -78 -22 -161
-1 -131 21 -186 93 -231 65 -42 113 -52 221 -47 77 3 106 9 151 31 105 51 176
154 200 291 38 222 -58 353 -266 362 -52 3 -99 -1 -135 -11z m174 -144 c25
-25 32 -103 16 -184 -33 -175 -142 -267 -222 -186 -30 30 -31 31 -25 112 10
142 50 235 117 270 41 21 86 16 114 -12z"/>
<path d="M9646 3241 l-99 -17 -18 -99 c-19 -112 -46 -233 -90 -407 -16 -64
-29 -122 -29 -128 0 -7 36 -10 112 -8 l112 3 8 30 c4 17 19 91 33 165 15 74
44 209 66 299 21 90 39 167 39 172 0 11 -11 10 -134 -10z"/>
<path d="M10080 3245 c-109 -31 -184 -98 -238 -212 -24 -52 -27 -69 -27 -168
0 -93 3 -116 21 -150 28 -52 68 -92 119 -118 51 -26 198 -35 265 -15 l45 14
22 79 c12 44 20 81 18 83 -2 3 -24 -5 -48 -17 -82 -40 -174 -23 -211 40 -58
98 0 276 104 319 49 20 126 8 160 -25 17 -16 32 -27 34 -24 4 5 46 143 46 153
0 4 -21 16 -47 28 -62 27 -188 33 -263 13z"/>
<path d="M10620 3246 c-110 -29 -173 -103 -174 -206 -1 -84 29 -125 133 -179
93 -48 117 -75 102 -114 -13 -35 -40 -47 -101 -47 -59 0 -114 20 -151 56 -30
29 -31 28 -53 -45 -24 -81 -22 -86 37 -112 46 -21 67 -24 182 -24 127 0 131 1
185 31 102 57 143 160 106 259 -20 52 -56 85 -140 127 -103 51 -119 78 -70
117 50 39 151 25 198 -28 11 -12 22 -21 27 -21 7 0 53 140 47 145 -2 1 -16 9
-33 18 -72 36 -209 47 -295 23z"/>
<path d="M1500 3175 c-304 -56 -541 -184 -781 -424 -425 -426 -692 -972 -716
-1466 -25 -540 216 -909 700 -1070 211 -70 372 -90 666 -82 233 6 371 24 609
78 201 46 502 147 502 169 0 15 -140 130 -165 136 -14 3 -68 -5 -122 -19 -338
-89 -743 -121 -1010 -81 -822 122 -957 768 -326 1560 112 140 413 442 569 571
207 171 441 340 587 425 26 15 47 35 47 44 0 23 -73 87 -134 118 -112 56 -263
70 -426 41z"/>
<path d="M11200 2396 l-75 -11 -21 -85 c-12 -47 -18 -89 -14 -93 8 -9 161 9
197 23 16 7 25 25 37 79 9 38 16 77 16 85 0 19 -27 19 -140 2z"/>
<path d="M6295 2323 l-80 -4 -114 -217 c-63 -119 -168 -315 -233 -434 -65
-120 -118 -220 -118 -223 0 -3 47 -5 105 -5 l106 0 57 118 57 117 70 3 c39 2
98 0 133 -3 l62 -7 0 -114 0 -114 115 0 c103 0 115 2 115 18 0 9 -5 58 -10
107 -5 50 -18 214 -29 365 -12 151 -24 303 -27 338 l-6 62 -61 -2 c-34 -1 -98
-4 -142 -5z m34 -379 l1 -111 -31 -7 c-39 -7 -97 -8 -125 0 -21 6 -18 14 60
177 l81 171 6 -60 c4 -32 7 -109 8 -170z"/>
<path d="M7686 2294 c-49 -13 -90 -25 -91 -27 -1 -1 -10 -38 -21 -82 l-19 -80
-44 -5 -45 -5 -18 -60 c-10 -33 -18 -63 -18 -67 0 -5 20 -8 45 -8 25 0 45 -5
45 -11 0 -5 -16 -73 -35 -150 -47 -185 -53 -245 -30 -294 25 -52 77 -75 175
-75 114 0 117 2 141 82 11 38 19 72 17 74 -2 2 -21 -2 -41 -8 -45 -14 -84 0
-92 34 -3 13 12 95 33 183 l38 160 63 5 63 5 19 60 c10 33 19 63 19 68 0 4
-30 7 -66 7 -58 0 -65 2 -60 18 12 42 46 181 46 191 0 15 -21 13 -124 -15z"/>
<path d="M10751 2294 c-46 -12 -85 -25 -88 -28 -3 -2 -9 -24 -14 -48 -27 -121
-25 -118 -74 -118 l-44 0 -15 -54 c-24 -83 -23 -86 30 -86 39 0 45 -3 40 -17
-31 -103 -76 -319 -76 -369 0 -104 51 -144 184 -144 106 0 121 8 140 73 24 83
23 86 -23 74 -32 -9 -44 -8 -66 7 -34 22 -32 39 15 239 l32 137 62 0 62 0 18
58 c10 31 21 63 23 70 4 9 -12 12 -61 12 -41 0 -66 4 -66 11 0 10 34 149 46
192 7 23 -17 21 -125 -9z"/>
<path d="M8170 2109 c-147 -29 -250 -140 -286 -308 -18 -86 -18 -135 1 -199
29 -97 99 -153 216 -171 141 -23 287 28 362 125 63 83 81 142 81 274 1 107 -1
118 -26 161 -59 100 -197 148 -348 118z m145 -149 c25 -28 32 -75 23 -153 -23
-190 -135 -301 -225 -223 -26 23 -28 30 -28 98 1 104 35 211 85 260 32 33 44
38 82 38 32 0 50 -6 63 -20z"/>
<path d="M8822 2101 c-59 -10 -97 -22 -102 -31 -4 -8 -10 -37 -14 -65 -7 -54
-110 -518 -121 -547 -7 -17 2 -18 103 -18 l110 0 11 53 c6 28 30 137 53 241
l42 189 44 19 c52 23 85 15 103 -26 11 -23 -16 -172 -75 -418 l-14 -58 108 0
109 0 11 58 c7 31 25 116 40 187 16 72 32 153 36 182 6 50 9 54 51 74 51 25
85 20 108 -15 19 -29 14 -66 -46 -315 -21 -90 -39 -165 -39 -167 0 -2 49 -4
108 -4 l108 0 53 252 c55 261 58 305 26 354 -55 85 -206 91 -325 14 l-45 -29
-12 23 c-40 77 -169 84 -277 15 l-46 -29 6 40 c5 31 3 40 -7 39 -8 -1 -56 -9
-107 -18z"/>
<path d="M11158 2101 c-53 -9 -101 -20 -106 -26 -5 -5 -14 -45 -20 -88 -9 -62
-79 -371 -117 -519 l-7 -28 116 0 c64 0 116 1 116 3 0 23 51 276 90 445 28
119 50 220 50 224 0 10 0 10 -122 -11z"/>
<path d="M11614 2110 c-184 -39 -298 -198 -297 -415 0 -159 73 -242 231 -265
182 -25 324 45 399 197 38 76 38 78 38 197 0 103 -3 127 -21 161 -25 47 -89
100 -142 115 -53 15 -160 21 -208 10z m143 -152 c32 -35 37 -86 18 -180 -28
-142 -85 -218 -163 -218 -41 0 -78 35 -87 83 -9 45 17 180 45 240 31 66 71 97
124 97 31 0 48 -6 63 -22z"/>
<path d="M12265 2101 c-99 -17 -100 -17 -103 -46 -4 -44 -67 -350 -101 -493
l-28 -123 110 3 110 3 18 90 c10 50 33 157 50 239 l32 148 41 19 c55 25 72 24
103 -7 23 -23 25 -30 19 -77 -4 -29 -25 -130 -46 -226 -22 -95 -40 -178 -40
-183 0 -5 48 -7 107 -6 l107 3 48 230 c52 253 56 296 32 355 -24 58 -72 85
-155 85 -54 0 -76 -6 -128 -32 l-62 -32 7 35 c5 25 3 34 -7 33 -8 -1 -59 -9
-114 -18z"/>
<path d="M6875 2101 c-89 -6 -89 -6 -97 -36 -33 -128 -90 -400 -94 -450 -5
-50 -2 -67 18 -104 34 -65 74 -83 170 -78 65 3 85 9 127 35 l50 31 -6 -30 -6
-30 104 3 104 3 23 110 c13 61 46 208 73 328 28 120 49 220 47 221 -1 1 -50 0
-107 -3 l-104 -6 -49 -230 c-53 -251 -54 -254 -129 -277 -35 -10 -43 -9 -67 9
-24 19 -27 27 -26 79 1 33 20 136 43 230 44 185 47 205 29 202 -7 -1 -53 -4
-103 -7z"/>
<path d="M10045 2086 c-118 -28 -214 -108 -265 -219 -79 -169 -50 -361 63
-416 67 -32 150 -29 222 9 l57 30 -6 -25 -7 -26 102 3 102 3 38 185 c20 102
51 243 68 313 17 71 31 135 31 143 0 12 -29 14 -177 13 -103 0 -199 -6 -228
-13z m172 -138 c-3 -13 -20 -90 -38 -172 -37 -170 -51 -194 -115 -203 -36 -5
-46 -1 -75 25 -32 29 -34 33 -34 99 1 49 7 83 24 120 26 59 96 129 138 139 15
3 33 7 38 9 6 2 23 4 39 4 24 1 27 -2 23 -21z"/>
<path d="M4527 1626 c-108 -113 -242 -244 -297 -293 -55 -48 -100 -93 -100
-100 0 -7 23 -56 52 -110 29 -54 131 -255 229 -448 144 -285 181 -351 200
-356 31 -9 208 -11 248 -3 31 6 31 7 31 69 0 35 -9 148 -20 252 -10 103 -40
404 -65 668 -25 264 -48 490 -50 503 -3 12 -11 22 -18 22 -6 0 -101 -92 -210
-204z"/>
<path d="M7865 1253 c-42 -7 -52 -17 -61 -71 -11 -65 -11 -67 6 -65 8 1 40 4
71 8 l57 6 11 47 c7 26 14 55 17 65 5 14 -1 17 -33 16 -21 -1 -51 -4 -68 -6z"/>
<path d="M5989 1197 c-156 -44 -238 -177 -198 -320 15 -54 70 -104 174 -159
136 -71 176 -124 153 -205 -22 -81 -115 -131 -227 -120 -66 6 -112 26 -157 69
-18 16 -34 26 -37 21 -2 -4 -10 -32 -17 -62 -13 -54 -13 -55 15 -77 74 -59
277 -77 389 -34 138 53 212 190 175 324 -15 52 -77 117 -151 156 -131 69 -166
96 -179 138 -17 58 14 123 73 153 81 42 205 27 274 -33 24 -22 35 -26 39 -16
15 43 35 101 35 105 0 2 -30 18 -66 35 -56 26 -81 31 -158 34 -55 3 -109 -1
-137 -9z"/>
<path d="M8848 1133 l-56 -15 -19 -81 -18 -82 -43 0 c-47 0 -55 -8 -67 -62
l-7 -33 47 0 c47 0 47 -1 42 -27 -4 -16 -22 -95 -42 -178 -58 -246 -57 -296 7
-335 25 -15 50 -20 103 -20 39 0 75 4 81 8 11 7 34 66 34 87 0 8 -15 11 -50 7
-40 -4 -55 -1 -71 14 -24 22 -26 8 33 262 l42 182 67 0 67 0 15 45 c9 26 12
47 6 50 -5 3 -36 3 -69 -1 -70 -8 -68 -12 -40 96 30 113 33 108 -62 83z"/>
<path d="M6624 952 c-146 -51 -236 -202 -237 -402 -1 -74 3 -103 17 -130 43
-83 103 -119 210 -127 173 -13 295 75 357 257 32 94 32 238 1 298 -55 104
-212 151 -348 104z m199 -110 c39 -39 48 -93 32 -187 -33 -191 -143 -305 -252
-264 -57 22 -83 68 -83 148 0 111 35 213 95 280 62 69 152 79 208 23z"/>
<path d="M7336 954 c-164 -52 -262 -205 -254 -394 4 -94 20 -138 70 -189 59
-60 102 -76 203 -75 58 0 102 6 125 16 31 13 37 22 51 76 10 34 16 62 14 62
-1 0 -24 -12 -51 -27 -95 -53 -203 -30 -256 55 -46 74 -24 214 47 308 32 42
117 84 169 84 42 0 118 -29 130 -49 13 -20 23 -11 35 30 7 23 15 47 18 55 3
10 -10 21 -43 35 -63 28 -190 35 -258 13z"/>
<path d="M8203 951 c-99 -34 -176 -116 -212 -226 -61 -185 -21 -339 104 -400
68 -34 175 -44 256 -25 89 21 106 34 124 92 23 78 21 81 -31 48 -86 -54 -212
-62 -283 -19 -39 23 -70 89 -71 145 0 35 4 43 23 48 12 3 115 6 229 6 239 0
220 -10 220 116 0 86 -26 151 -74 185 -69 50 -192 63 -285 30z m198 -97 c32
-28 51 -80 43 -120 l-6 -34 -159 0 c-183 0 -184 0 -126 86 43 66 103 97 174
91 33 -2 61 -11 74 -23z"/>
<path d="M7800 953 c-19 -3 -38 -8 -43 -12 -4 -4 -25 -95 -47 -202 -22 -107
-53 -247 -68 -312 -16 -64 -26 -119 -22 -122 4 -2 37 -2 73 2 l66 6 11 56 c51
253 108 511 126 574 6 18 -11 20 -96 10z"/>
<path d="M9063 953 c-13 -2 -23 -7 -23 -11 0 -4 22 -146 49 -317 36 -229 46
-315 38 -330 -5 -11 -47 -79 -93 -151 -46 -73 -84 -135 -84 -138 0 -3 31 -6
70 -6 l70 0 26 53 c41 81 171 306 356 613 92 155 168 285 168 288 0 3 -30 4
-67 2 l-68 -3 -34 -64 c-75 -142 -223 -400 -227 -396 -6 6 -54 391 -54 434 l0
33 -52 -1 c-29 -1 -63 -4 -75 -6z"/>
<path d="M5107 645 c-76 -26 -117 -88 -117 -175 0 -28 6 -63 14 -78 90 -171
346 -114 346 77 0 92 -47 158 -128 181 -48 13 -68 12 -115 -5z m103 -25 c20
-5 51 -26 70 -45 29 -30 34 -43 37 -92 5 -71 -17 -113 -76 -143 -52 -26 -96
-25 -145 3 -113 64 -93 240 30 277 39 11 44 11 84 0z"/>
<path d="M5090 470 c0 -82 3 -100 15 -100 11 0 15 11 15 39 0 22 5 43 10 46
17 10 56 -20 70 -54 8 -19 20 -31 31 -31 25 0 24 8 -5 51 -24 35 -24 36 -5 52
10 9 19 28 19 41 0 41 -25 56 -91 56 l-59 0 0 -100z"/>
</g>
</svg>
