<?xml version="1.0" standalone="no"?>
<!DOCTYPE svg PUBLIC "-//W3C//DTD SVG 20010904//EN"
 "http://www.w3.org/TR/2001/REC-SVG-20010904/DTD/svg10.dtd">
<svg version="1.0" xmlns="http://www.w3.org/2000/svg"
 width="1394.000000pt" height="428.000000pt" viewBox="0 0 1394.000000 428.000000"
 preserveAspectRatio="xMidYMid meet">
<metadata>
Created by potrace 1.16, written by Peter Selinger 2001-2019
</metadata>
<g transform="translate(0.000000,428.000000) scale(0.100000,-0.100000)"
fill="#000000" stroke="none">
<path d="M4140 4270 c0 -5 -10 -10 -22 -10 -67 -1 -88 -30 -88 -126 l0 -54
-45 0 c-25 0 -45 -4 -45 -10 0 -5 -18 -10 -39 -10 -22 0 -41 -4 -43 -10 -2 -6
-85 -11 -204 -13 -170 -3 -205 -6 -218 -20 -15 -15 -15 -18 1 -37 10 -11 25
-20 35 -20 10 0 18 -4 18 -10 0 -5 25 -10 55 -10 30 0 55 -4 55 -9 0 -5 15
-12 34 -15 22 -4 37 -14 41 -26 4 -12 19 -22 41 -26 19 -3 34 -10 34 -15 0 -5
6 -9 14 -9 8 0 16 -5 18 -10 2 -6 35 -13 73 -17 39 -3 73 -11 77 -17 4 -6 8
-64 8 -128 0 -72 4 -118 10 -118 6 0 10 -38 10 -94 0 -85 -2 -94 -20 -99 -15
-4 -20 -14 -20 -37 0 -42 -17 -57 -76 -66 -28 -4 -56 -15 -65 -25 -9 -11 -24
-19 -33 -19 -9 0 -16 -4 -16 -9 0 -5 -22 -11 -50 -15 -27 -4 -50 -11 -50 -16
0 -6 -12 -10 -26 -10 -14 0 -32 -7 -40 -15 -9 -8 -24 -15 -35 -15 -10 0 -19
-4 -19 -10 0 -5 -6 -10 -14 -10 -8 0 -16 -6 -18 -12 -3 -9 -54 -14 -186 -16
-100 -3 -182 -8 -182 -13 0 -5 -9 -9 -20 -9 -11 0 -20 -4 -20 -9 0 -5 -29 -12
-65 -16 -36 -3 -65 -11 -65 -16 0 -5 -11 -9 -25 -9 -14 0 -25 -4 -25 -10 0 -6
-30 -10 -70 -10 -40 0 -70 4 -70 10 0 6 -24 10 -54 10 -30 0 -56 5 -58 10 -2
6 -50 13 -108 17 -58 3 -108 11 -112 17 -6 8 -8 8 -8 0 0 -6 -27 -14 -60 -18
-33 -4 -60 -11 -60 -16 0 -6 -9 -10 -20 -10 -11 0 -20 -4 -20 -10 0 -5 -9 -10
-20 -10 -11 0 -20 -4 -20 -9 0 -5 -22 -12 -50 -16 -27 -4 -50 -11 -50 -16 0
-5 -18 -9 -40 -9 -22 0 -40 4 -40 10 0 5 -47 11 -107 12 l-107 3 0 63 1 62
-203 0 -204 0 0 -135 c0 -128 -1 -135 -20 -135 -19 0 -20 7 -20 120 l0 120
-135 0 -135 0 0 -60 c0 -47 -3 -60 -15 -60 -8 0 -15 7 -15 15 0 13 -25 15
-162 15 l-163 0 3 -72 c2 -40 9 -76 15 -80 6 -4 8 -11 3 -15 -5 -4 -11 -2 -13
5 -3 7 -22 12 -44 12 -35 0 -39 -3 -39 -25 l0 -25 -200 0 c-127 0 -200 -4
-200 -10 0 -6 73 -10 200 -10 l200 0 6 25 c4 18 13 25 31 25 23 0 23 -1 8 -16
-9 -9 -14 -23 -11 -30 4 -12 -42 -14 -274 -14 -180 0 -280 -4 -280 -10 0 -6
105 -10 295 -10 l295 0 0 25 c0 22 4 25 35 25 l35 0 0 69 c0 103 -2 101 96
101 84 0 89 -2 85 -37 -1 -10 21 -13 84 -13 l85 0 0 60 0 60 70 0 70 0 0 -120
0 -120 75 0 c43 0 75 4 75 10 0 6 7 10 15 10 13 0 15 21 15 125 l0 125 130 0
130 0 0 -85 0 -85 69 0 c61 0 70 3 76 20 5 15 15 20 41 20 19 0 34 -4 34 -10
0 -6 33 -10 80 -10 44 0 80 4 80 9 0 4 24 11 52 14 29 4 54 11 56 17 2 5 10
10 18 10 8 0 14 4 14 9 0 5 23 12 50 16 28 4 50 11 50 16 0 5 43 9 95 9 52 0
95 -4 95 -9 0 -5 36 -13 80 -17 44 -3 80 -11 80 -15 0 -5 47 -9 105 -9 58 0
105 4 105 9 0 5 25 13 55 16 30 4 55 11 55 16 0 5 18 9 40 9 22 0 40 5 40 10
0 6 18 10 40 10 22 0 40 5 40 10 0 6 25 10 55 10 30 0 55 -4 55 -10 0 -6 27
-10 60 -10 33 0 60 4 60 9 0 5 20 12 45 15 25 4 45 11 45 17 0 5 9 9 20 9 11
0 20 4 20 10 0 5 11 12 25 16 14 3 25 10 25 15 0 5 14 9 30 9 17 0 30 4 30 9
0 5 20 12 45 15 25 4 45 11 45 17 0 5 12 9 26 9 14 0 32 7 40 15 9 8 26 15 40
15 13 0 24 5 24 10 0 6 11 10 25 10 14 0 25 5 25 10 0 6 16 10 35 10 29 0 36
4 41 25 3 14 10 25 15 25 5 0 9 126 9 289 l0 289 -102 4 c-67 2 -103 8 -106
16 -2 7 -12 12 -23 12 -10 0 -19 5 -19 10 0 6 -7 10 -15 10 -8 0 -27 12 -42
28 l-27 27 27 3 c15 2 27 8 27 13 0 5 41 9 90 9 53 0 90 4 90 10 0 6 32 10 75
10 43 0 75 4 75 10 0 6 7 10 15 10 11 0 15 19 17 88 l3 87 34 3 c53 5 71 -22
71 -108 0 -56 3 -70 15 -70 8 0 15 -4 15 -10 0 -6 35 -10 85 -10 50 0 85 -4
85 -10 0 -6 40 -10 99 -10 79 0 100 -3 105 -15 3 -9 0 -15 -9 -15 -7 0 -16 -9
-20 -19 -3 -11 -19 -22 -35 -26 -17 -4 -30 -11 -30 -16 0 -5 -9 -9 -19 -9 -11
0 -21 -5 -23 -11 -2 -7 -42 -13 -96 -17 l-92 -5 0 -52 c0 -44 3 -54 20 -58 19
-5 20 -14 20 -246 0 -154 4 -241 10 -241 6 0 10 -5 10 -11 0 -15 26 -39 43
-39 9 0 17 -5 19 -11 2 -6 25 -13 51 -16 26 -3 47 -10 47 -14 0 -5 6 -9 14 -9
8 0 16 -7 20 -15 3 -8 15 -15 26 -15 11 0 20 -4 20 -10 0 -5 16 -10 35 -10 19
0 35 -4 35 -9 0 -4 27 -11 60 -15 33 -4 60 -11 60 -16 0 -6 14 -10 30 -10 17
0 30 -4 30 -9 0 -5 18 -12 40 -16 22 -4 40 -11 40 -16 0 -5 7 -9 15 -9 8 0 15
-4 15 -10 0 -5 7 -10 15 -10 8 0 15 -4 15 -9 0 -6 20 -13 45 -17 25 -3 45 -10
45 -15 0 -5 9 -9 19 -9 11 0 21 -5 23 -10 2 -6 27 -13 56 -17 28 -3 52 -10 52
-14 0 -5 14 -9 30 -9 17 0 30 -4 30 -9 0 -6 20 -13 45 -17 25 -3 45 -10 45
-15 0 -5 14 -9 30 -9 17 0 30 -4 30 -10 0 -5 11 -10 24 -10 13 0 26 -4 28 -10
2 -5 36 -12 76 -16 39 -4 72 -11 72 -15 0 -5 9 -9 19 -9 11 0 22 -6 25 -12 5
-10 7 -10 12 0 4 8 35 12 105 12 54 0 99 4 99 9 0 5 29 13 65 16 36 4 65 11
65 16 0 5 18 9 39 9 22 0 42 5 44 13 3 6 6 2 6 -10 1 -13 6 -23 11 -23 6 0 10
-18 10 -40 l0 -40 120 0 c71 0 120 -4 120 -10 0 -6 287 -11 797 -12 626 -2
797 -6 801 -15 5 -17 59 -17 64 0 4 9 110 13 478 15 l474 3 28 -33 c15 -18 28
-36 28 -40 0 -5 7 -8 15 -8 8 0 15 -4 15 -10 0 -5 9 -10 20 -10 11 0 20 -4 20
-10 0 -6 41 -10 103 -10 91 0 104 2 117 20 8 11 20 20 27 20 7 0 13 4 13 9 0
5 9 13 20 16 11 3 20 15 20 25 0 28 28 32 181 28 94 -2 134 -7 137 -15 6 -19
100 -17 118 2 12 12 44 15 152 15 l136 0 28 -32 c15 -18 28 -36 28 -40 0 -5 7
-8 15 -8 8 0 15 -4 15 -10 0 -5 9 -10 20 -10 11 0 20 -4 20 -10 0 -6 38 -10
95 -10 57 0 95 4 95 10 0 6 9 10 20 10 11 0 20 5 20 10 0 6 5 10 11 10 10 0
30 19 72 70 18 22 15 93 -5 113 -9 10 -20 26 -23 37 -4 13 -19 23 -36 27 -16
3 -29 9 -29 14 0 5 -9 9 -20 9 -11 0 -20 5 -20 10 0 6 -33 10 -80 10 -47 0
-80 -4 -80 -10 0 -5 -13 -10 -29 -10 -16 0 -31 -6 -35 -15 -3 -8 -12 -15 -21
-15 -8 0 -15 -4 -15 -8 0 -5 -11 -22 -25 -38 -14 -16 -25 -32 -25 -36 0 -5
-63 -8 -139 -8 -103 0 -140 3 -143 13 -3 8 -26 12 -68 12 -42 0 -65 -4 -67
-12 -4 -10 -39 -13 -134 -13 -116 0 -131 2 -149 20 -11 11 -20 25 -20 31 0 15
-39 49 -57 49 -7 0 -13 5 -13 10 0 6 -9 10 -20 10 -11 0 -20 5 -20 10 0 6 -35
10 -85 10 -50 0 -85 -4 -85 -10 0 -5 -11 -10 -25 -10 -14 0 -25 -4 -25 -10 0
-5 -11 -12 -25 -16 -14 -3 -25 -9 -25 -14 0 -4 -9 -17 -20 -30 -11 -13 -20
-29 -20 -37 0 -10 -33 -13 -166 -13 -128 0 -165 3 -162 13 3 6 14 13 26 15 12
2 22 8 22 13 0 5 7 9 15 9 8 0 15 5 15 10 0 6 7 10 15 10 8 0 15 4 15 9 0 5
11 12 25 15 14 4 25 11 25 16 0 6 7 10 15 10 8 0 15 4 15 9 0 5 12 12 27 16
15 3 34 15 43 25 9 10 28 22 43 25 15 4 27 11 27 16 0 5 7 9 15 9 8 0 15 5 15
10 0 6 9 10 20 10 11 0 20 4 20 10 0 5 11 12 25 16 14 3 25 10 25 15 0 5 7 9
15 9 8 0 15 5 15 10 0 7 142 10 405 10 263 0 405 -3 405 -10 0 -5 18 -10 40
-10 22 0 40 -4 40 -10 0 -13 64 -23 104 -16 27 5 37 13 45 38 14 39 15 33 -13
62 -20 22 -32 26 -79 26 -39 0 -56 -4 -61 -15 -8 -23 -426 -23 -426 0 0 8 7
15 15 15 8 0 15 4 15 9 0 5 12 12 27 15 14 4 38 20 52 35 15 16 36 31 49 35
12 4 22 12 22 17 0 5 6 9 14 9 8 0 16 7 20 15 3 8 12 15 21 15 8 0 15 5 15 10
0 6 7 10 15 10 8 0 15 5 15 10 0 6 7 10 15 10 9 0 18 7 21 15 5 12 29 15 130
15 68 0 124 -4 124 -9 0 -4 32 -11 72 -13 40 -3 74 -11 76 -17 5 -14 52 -15
52 -1 0 6 9 10 19 10 47 0 66 59 32 98 -15 18 -29 22 -75 22 -31 0 -56 -4 -56
-10 0 -5 -7 -10 -15 -10 -8 0 -15 -4 -15 -9 0 -6 -84 -11 -202 -13 -150 -2
-202 -6 -206 -15 -2 -7 -10 -13 -17 -13 -8 0 -16 -9 -20 -19 -3 -10 -17 -22
-30 -25 -14 -4 -25 -11 -25 -16 0 -6 -7 -10 -15 -10 -8 0 -15 -4 -15 -10 0 -5
-7 -10 -15 -10 -9 0 -18 -7 -21 -15 -4 -8 -12 -15 -20 -15 -8 0 -14 -4 -14 -9
0 -5 -13 -12 -30 -16 -16 -4 -32 -15 -35 -26 -4 -10 -13 -19 -21 -19 -8 0 -14
-4 -14 -10 0 -5 -11 -12 -25 -16 -13 -3 -27 -14 -30 -24 -6 -17 -22 -19 -210
-22 -195 -3 -204 -4 -222 -25 -11 -12 -31 -25 -46 -28 -15 -4 -27 -11 -27 -16
0 -5 -7 -9 -15 -9 -8 0 -15 -4 -15 -10 0 -5 -11 -12 -25 -16 -14 -3 -25 -10
-25 -15 0 -5 -7 -9 -15 -9 -8 0 -15 -4 -15 -10 0 -5 -9 -10 -20 -10 -11 0 -20
-4 -20 -9 0 -5 -11 -12 -25 -15 -14 -4 -25 -11 -25 -16 0 -6 -7 -10 -15 -10
-8 0 -15 -4 -15 -9 0 -5 -12 -12 -27 -16 -15 -3 -34 -15 -43 -25 -9 -10 -28
-22 -43 -25 -15 -4 -27 -11 -27 -16 0 -5 -6 -9 -13 -9 -7 0 -19 -9 -27 -20 -8
-11 -29 -23 -47 -26 -18 -3 -33 -10 -33 -15 0 -5 -96 -9 -214 -9 -181 0 -215
2 -220 15 -3 8 -17 15 -31 15 -14 0 -25 5 -25 10 0 6 -7 10 -15 10 -8 0 -15
-4 -15 -10 0 -5 -14 -10 -30 -10 -18 0 -33 -6 -36 -15 -9 -22 -1698 -23 -1720
-1 -9 9 -14 35 -14 70 0 53 -1 56 -25 56 -14 0 -25 -4 -25 -10 0 -5 -25 -10
-55 -10 -30 0 -55 -4 -55 -9 0 -4 -27 -11 -60 -15 -33 -4 -60 -11 -60 -16 0
-6 -25 -10 -55 -10 -30 0 -55 -4 -55 -10 0 -5 -16 -10 -35 -10 -19 0 -35 5
-35 10 0 6 -32 10 -75 10 -41 0 -75 4 -75 9 0 5 -25 12 -55 16 -30 3 -55 11
-55 16 0 5 -13 9 -30 9 -16 0 -30 4 -30 9 0 5 -20 12 -45 15 -25 4 -45 11 -45
17 0 5 -13 9 -30 9 -16 0 -30 4 -30 9 0 4 -27 11 -60 15 -33 4 -60 11 -60 16
0 6 -9 10 -20 10 -11 0 -20 5 -20 10 0 6 -9 10 -20 10 -11 0 -20 4 -20 9 0 5
-16 12 -35 15 -19 4 -35 11 -35 16 0 6 -7 10 -15 10 -8 0 -15 4 -15 9 0 5 -18
12 -40 16 -22 4 -40 11 -40 16 0 5 -13 9 -30 9 -16 0 -30 4 -30 10 0 5 -27 12
-60 16 -33 4 -60 11 -60 15 0 5 -16 9 -35 9 -19 0 -35 4 -35 10 0 5 -11 12
-25 16 -14 3 -25 10 -25 15 0 5 -7 9 -15 9 -8 0 -15 5 -15 10 0 6 -16 10 -35
10 -19 0 -35 4 -35 9 0 5 -15 12 -34 15 l-34 7 -6 102 c-3 56 -7 179 -8 273
l-3 172 60 6 c33 3 62 11 63 16 2 6 12 10 23 10 10 0 19 4 19 9 0 5 13 12 30
16 16 4 32 15 35 26 4 10 13 19 21 19 8 0 17 7 20 15 5 11 22 15 70 15 35 0
64 4 64 9 0 5 14 11 30 15 17 3 42 17 57 32 33 33 20 44 -54 44 -29 0 -53 5
-53 10 0 6 -18 10 -40 10 -22 0 -40 -4 -40 -10 0 -6 -40 -10 -100 -10 -60 0
-100 4 -100 10 0 6 -39 10 -96 10 -117 0 -124 5 -124 89 0 34 -4 61 -9 61 -5
0 -12 9 -16 20 -4 12 -19 22 -41 26 -19 3 -34 10 -34 15 0 5 -11 9 -25 9 -14
0 -25 -4 -25 -10z m5100 -1460 c0 -5 11 -10 25 -10 57 0 59 -102 2 -108 -15
-2 -27 -8 -27 -13 0 -5 -11 -9 -25 -9 -14 0 -25 4 -25 9 0 5 -10 11 -22 13
-13 2 -24 11 -27 23 -2 11 -8 23 -15 27 -8 6 -7 8 2 8 6 0 12 9 12 20 0 15 9
22 30 27 17 3 30 9 30 14 0 5 9 9 20 9 11 0 20 -4 20 -10z m1140 0 c0 -5 14
-10 30 -10 23 0 33 -6 42 -25 16 -35 0 -79 -30 -83 -12 -2 -22 -8 -22 -13 0
-5 -13 -9 -30 -9 -16 0 -30 5 -30 10 0 6 -8 10 -18 10 -10 0 -25 9 -35 20 -19
22 -22 40 -8 40 5 0 11 10 13 23 2 14 11 23 26 25 12 2 22 8 22 13 0 5 9 9 20
9 11 0 20 -4 20 -10z"/>
<path d="M11850 3711 c0 -5 -16 -12 -35 -15 -19 -4 -35 -11 -35 -16 0 -6 -5
-10 -10 -10 -6 0 -22 -12 -35 -26 -21 -22 -25 -37 -25 -84 0 -47 4 -62 25 -84
14 -15 25 -31 25 -36 0 -5 16 -12 35 -16 19 -3 35 -10 35 -15 0 -5 24 -9 54
-9 34 0 57 -5 60 -12 5 -10 7 -10 12 0 3 6 23 12 45 12 21 0 39 5 39 10 0 6 6
10 14 10 14 0 76 53 76 65 0 3 7 13 15 21 8 9 15 33 15 54 0 21 -7 45 -15 54
-8 8 -15 18 -15 21 0 19 -65 65 -91 65 -16 0 -29 5 -29 10 0 6 -33 10 -80 10
-44 0 -80 -4 -80 -9z m130 -51 c0 -5 11 -10 23 -10 38 0 66 -32 73 -82 6 -39
3 -48 -20 -71 -15 -15 -33 -27 -41 -27 -8 0 -15 -4 -15 -10 0 -6 -28 -10 -65
-10 -37 0 -65 4 -65 10 0 6 -9 10 -20 10 -12 0 -25 10 -32 25 -6 14 -15 25
-20 25 -4 0 -8 18 -8 40 0 22 4 40 9 40 5 0 12 9 16 19 3 10 17 22 30 25 14 4
25 11 25 16 0 6 25 10 55 10 30 0 55 -4 55 -10z"/>
<path d="M11920 3630 c0 -5 -13 -10 -29 -10 -21 0 -32 -6 -36 -20 -3 -11 -11
-20 -16 -20 -5 0 -9 -9 -9 -20 0 -23 33 -60 55 -60 8 0 15 -4 15 -10 0 -5 16
-10 35 -10 19 0 35 5 35 10 0 6 7 10 15 10 8 0 15 5 15 10 0 6 6 10 14 10 16
0 26 32 19 60 -3 11 -12 20 -19 20 -8 0 -14 5 -14 10 0 6 -9 10 -20 10 -11 0
-20 5 -20 10 0 6 -9 10 -20 10 -11 0 -20 -4 -20 -10z"/>
<path d="M12192 3491 c-12 -35 -42 -71 -59 -71 -7 0 -13 -4 -13 -10 0 -5 -7
-10 -15 -10 -8 0 -15 -4 -15 -10 0 -5 -9 -10 -19 -10 -10 0 -21 -7 -25 -15 -3
-8 0 -15 7 -15 7 0 19 -9 27 -20 8 -10 27 -22 42 -25 15 -4 28 -11 28 -16 0
-5 5 -9 10 -9 11 0 25 -10 65 -47 13 -13 29 -23 35 -23 5 0 10 -4 10 -9 0 -5
12 -12 26 -15 14 -4 37 -18 50 -31 14 -14 30 -25 36 -25 6 0 18 -8 27 -19 9
-10 27 -22 40 -26 13 -4 35 -18 48 -31 13 -13 30 -24 38 -24 8 0 15 -4 15 -10
0 -5 5 -10 10 -10 6 0 10 5 10 11 0 6 6 17 13 24 6 8 21 26 32 41 11 14 26 31
33 37 7 7 19 18 27 25 7 6 18 12 24 12 6 0 11 4 11 10 0 5 18 13 40 16 37 6
57 24 27 24 -7 0 -19 9 -27 20 -8 10 -27 22 -42 25 -15 4 -28 11 -28 16 0 5
-9 9 -20 9 -11 0 -20 4 -20 9 0 5 -11 12 -25 15 -14 4 -25 11 -25 16 0 6 -9
10 -20 10 -11 0 -20 4 -20 9 0 5 -13 12 -30 16 -16 4 -30 11 -30 16 0 5 -9 9
-20 9 -11 0 -20 5 -20 10 0 6 -5 10 -11 10 -6 0 -17 7 -25 15 -9 8 -25 15 -38
15 -12 0 -28 9 -36 20 -8 10 -27 22 -42 25 -15 4 -28 11 -28 16 0 5 -9 9 -20
9 -11 0 -20 5 -20 10 0 22 -29 8 -38 -19z"/>
<path d="M11665 3451 c-3 -10 -17 -22 -30 -25 -13 -3 -27 -15 -30 -26 -3 -11
-13 -20 -21 -20 -8 0 -14 -4 -14 -9 0 -4 -31 -11 -69 -13 -58 -4 -73 -10 -96
-32 -14 -14 -32 -26 -40 -26 -8 0 -15 -4 -15 -10 0 -6 -28 -10 -65 -10 -37 0
-65 -4 -65 -10 0 -5 -25 -10 -56 -10 l-57 0 6 -62 c4 -35 9 -102 13 -150 4
-49 11 -88 15 -88 5 0 9 -10 9 -22 l0 -21 19 22 c14 16 21 45 26 121 l7 100
34 0 c19 0 34 -4 34 -10 0 -5 16 -10 35 -10 22 0 38 -6 41 -15 4 -8 12 -15 20
-15 8 0 14 -4 14 -9 0 -5 14 -12 30 -16 17 -4 30 -11 30 -16 0 -5 14 -9 30 -9
19 0 30 -5 30 -14 0 -8 4 -16 10 -18 5 -1 12 -22 16 -45 l7 -43 -42 0 c-22 0
-41 -4 -41 -9 0 -4 -35 -11 -77 -14 -43 -3 -79 -11 -81 -16 -2 -6 -10 -11 -18
-11 -8 0 -14 -4 -14 -10 0 -6 40 -10 100 -10 60 0 100 4 100 10 0 6 47 10 120
10 l120 0 0 50 c0 28 -4 50 -10 50 -5 0 -10 23 -10 50 0 37 4 50 14 50 8 0 17
9 21 19 3 11 12 22 20 25 11 4 15 21 15 60 0 60 7 86 22 86 6 0 21 11 34 25
13 14 27 25 32 25 6 0 12 7 16 15 4 10 -1 15 -14 15 -11 0 -20 5 -20 10 0 6
-9 10 -20 10 -11 0 -20 5 -20 10 0 6 -7 10 -15 10 -8 0 -15 5 -15 10 0 6 -7
10 -15 10 -9 0 -21 11 -27 25 -13 30 -34 33 -43 6z m-55 -161 c0 -5 5 -10 10
-10 17 0 47 -33 53 -58 9 -36 -11 -81 -39 -88 -13 -3 -24 -10 -24 -15 0 -5
-29 -9 -65 -9 -36 0 -65 4 -65 9 0 5 -13 12 -29 16 -22 5 -30 13 -35 37 -10
53 -7 70 22 99 24 25 34 28 100 28 42 1 72 -3 72 -9z"/>
<path d="M11477 3240 c-23 -28 -21 -46 8 -75 35 -35 97 -35 113 0 6 14 16 25
22 25 18 0 11 32 -12 51 -30 27 -108 26 -131 -1z"/>
<path d="M12820 3170 c0 -5 -13 -10 -30 -10 -16 0 -30 -4 -30 -10 0 -5 -9 -10
-20 -10 -11 0 -23 -7 -26 -15 -4 -8 -12 -15 -20 -15 -8 0 -14 -3 -14 -7 0 -5
-11 -21 -25 -37 -14 -16 -25 -40 -25 -53 0 -12 -4 -23 -10 -23 -5 0 -10 -16
-10 -35 0 -19 5 -35 10 -35 6 0 10 -6 10 -14 0 -7 11 -25 25 -40 14 -15 25
-31 25 -37 0 -5 6 -9 14 -9 8 0 16 -7 20 -15 3 -8 15 -15 26 -15 11 0 20 -4
20 -10 0 -5 11 -10 25 -10 14 0 25 -4 25 -10 0 -6 40 -10 100 -10 60 0 100 4
100 10 0 6 14 10 30 10 17 0 30 4 30 10 0 5 11 12 25 16 13 3 27 15 30 25 4
10 11 19 16 19 14 0 32 20 47 53 14 33 16 133 2 142 -5 3 -10 15 -10 25 0 12
-9 22 -25 26 -13 3 -27 14 -30 25 -4 11 -20 21 -41 25 -19 3 -34 10 -34 15 0
5 -11 9 -25 9 -14 0 -25 5 -25 10 0 6 -37 10 -90 10 -53 0 -90 -4 -90 -10z
m228 -116 c35 -34 48 -86 32 -128 -12 -33 -46 -66 -67 -66 -7 0 -13 -4 -13
-10 0 -6 -35 -10 -85 -10 -50 0 -85 4 -85 10 0 6 -9 10 -20 10 -11 0 -23 7
-26 15 -4 8 -12 15 -19 15 -14 0 -25 31 -25 75 0 44 11 75 25 75 8 0 16 9 20
19 8 26 31 30 141 27 85 -3 93 -5 122 -32z"/>
<path d="M12860 3050 c0 -5 -8 -10 -17 -10 -23 0 -63 -48 -63 -75 0 -26 42
-75 65 -75 8 0 15 -4 15 -10 0 -5 25 -10 55 -10 30 0 55 5 55 10 0 6 7 10 15
10 31 0 55 33 55 75 0 49 -8 62 -43 70 -15 4 -27 11 -27 16 0 5 -25 9 -55 9
-30 0 -55 -4 -55 -10z"/>
<path d="M12548 2868 c-10 -10 -18 -24 -18 -32 0 -8 -6 -21 -13 -28 -8 -7 -20
-30 -26 -51 -7 -20 -16 -37 -20 -37 -4 0 -14 -18 -21 -40 -7 -22 -17 -40 -22
-40 -4 0 -8 -9 -8 -20 0 -11 4 -20 9 -20 5 0 12 -15 16 -32 15 -73 5 -68 135
-68 132 0 122 -6 135 78 l7 42 99 0 c59 0 99 -4 99 -10 0 -5 14 -10 31 -10
l31 0 -7 -75 c-6 -72 -6 -75 14 -75 12 0 21 -4 21 -10 0 -5 15 -10 34 -10 33
0 35 2 42 45 3 25 10 45 14 45 4 0 13 33 20 73 7 39 16 74 20 77 4 3 10 22 14
43 l7 38 -38 -7 c-21 -4 -39 -11 -41 -15 -2 -5 -21 -9 -43 -9 -21 0 -39 -4
-39 -10 0 -5 -25 -10 -55 -10 -30 0 -55 5 -55 10 0 6 -22 10 -50 10 -27 0 -50
4 -50 9 0 5 -18 12 -40 16 -22 4 -40 11 -40 16 0 5 -7 9 -15 9 -8 0 -15 4 -15
10 0 5 -10 12 -23 15 -13 4 -30 16 -38 27 -8 12 -23 31 -34 43 -19 20 -21 21
-37 3z"/>
<path d="M7040 2235 l0 -125 330 0 330 0 0 -240 0 -240 190 0 190 0 0 224 c0
123 3 231 6 240 5 14 44 16 335 16 l329 0 0 125 0 125 -855 0 -855 0 0 -125z"/>
<path d="M9298 2353 c-21 -2 -38 -8 -38 -14 0 -5 -9 -9 -20 -9 -11 0 -20 -4
-20 -10 0 -5 -7 -10 -15 -10 -9 0 -18 -7 -21 -15 -4 -8 -10 -15 -16 -15 -15 0
-58 -52 -58 -71 0 -9 -6 -19 -12 -21 -10 -4 -14 -71 -16 -281 l-4 -277 636 0
636 0 0 80 0 80 -429 0 c-236 0 -436 3 -445 6 -14 5 -16 28 -16 150 l0 144
655 0 c430 0 655 3 655 10 0 6 -4 10 -10 10 -16 0 -13 237 3 243 14 6 -1409 6
-1465 0z"/>
<path d="M12810 1780 c0 -5 -13 -10 -30 -10 -16 0 -30 -4 -30 -9 0 -5 -11 -12
-25 -15 -16 -4 -25 -13 -25 -25 0 -11 -6 -21 -12 -24 -9 -2 -13 -32 -13 -103
0 -89 2 -101 23 -122 12 -12 27 -22 32 -22 6 0 10 -4 10 -10 0 -5 9 -10 20
-10 11 0 20 -4 20 -10 0 -5 18 -10 40 -10 22 0 40 5 40 10 0 6 9 10 20 10 11
0 20 5 20 10 0 6 5 10 10 10 6 0 20 10 33 22 20 21 22 32 22 128 0 90 -3 108
-20 128 -11 12 -25 22 -32 22 -7 0 -13 5 -13 10 0 6 -16 10 -35 10 -19 0 -35
5 -35 10 0 6 -4 10 -10 10 -5 0 -10 -4 -10 -10z m64 -86 c13 -5 16 -22 16 -86
0 -70 -3 -82 -25 -103 -24 -25 -55 -33 -55 -15 0 6 -11 10 -24 10 -30 0 -36
16 -36 100 0 49 4 73 16 84 15 16 78 22 108 10z"/>
<path d="M13556 1774 c-3 -9 -6 -24 -6 -35 0 -10 -4 -19 -9 -19 -5 0 -13 -15
-16 -32 -4 -18 -13 -36 -19 -40 -12 -8 -14 -103 -3 -115 4 -3 54 -8 112 -11
l105 -5 0 -43 c0 -44 0 -44 35 -44 l35 0 0 145 0 145 -35 0 -35 0 0 -54 c0
-84 -2 -86 -81 -86 -62 0 -69 2 -69 20 0 11 4 20 9 20 5 0 14 23 21 50 7 28
16 50 20 50 11 0 20 39 13 56 -7 20 -69 18 -77 -2z"/>
<path d="M12270 1735 l0 -35 105 0 c94 0 105 -2 115 -20 14 -26 -3 -60 -30
-60 -11 0 -20 -4 -20 -10 0 -5 -13 -10 -30 -10 -16 0 -30 -4 -30 -9 0 -5 -18
-12 -40 -16 -22 -4 -40 -11 -40 -16 0 -5 -4 -9 -10 -9 -15 0 -50 -38 -50 -55
0 -8 4 -15 9 -15 5 0 12 -11 15 -25 l6 -25 150 0 150 0 0 35 0 35 -100 0 c-60
0 -100 -4 -100 -10 0 -5 -7 -10 -15 -10 -8 0 -15 8 -15 19 0 15 10 20 55 26
30 3 55 11 55 16 0 5 9 9 20 9 11 0 20 4 20 9 0 5 13 11 28 14 44 9 61 60 46
135 -5 24 -13 32 -35 37 -16 4 -29 11 -29 16 0 5 -52 9 -115 9 l-115 0 0 -35z"/>
<path d="M13090 1735 l0 -34 108 -3 107 -3 0 -35 c0 -29 -4 -36 -22 -38 -13
-2 -23 -8 -23 -13 0 -5 -13 -9 -30 -9 -16 0 -30 -4 -30 -9 0 -5 -18 -12 -40
-16 -22 -4 -40 -11 -40 -16 0 -5 -5 -9 -11 -9 -16 0 -38 -31 -39 -52 0 -9 5
-29 12 -43 l11 -25 149 0 c139 0 148 1 148 19 0 48 -7 51 -106 51 -56 0 -94
-4 -94 -10 0 -5 -7 -10 -15 -10 -8 0 -15 8 -15 19 0 15 10 20 55 26 30 3 55
11 55 16 0 5 9 9 20 9 11 0 20 4 20 9 0 5 13 12 29 16 31 7 51 39 51 85 0 39
-19 78 -42 85 -10 4 -18 11 -18 16 0 5 -52 9 -120 9 l-120 0 0 -35z"/>
<path d="M7700 1245 l0 -335 195 0 195 0 0 335 0 335 -195 0 -195 0 0 -335z"/>
<path d="M9082 1337 c3 -216 5 -245 21 -261 9 -10 17 -24 17 -32 0 -15 35 -54
49 -54 5 0 11 -7 15 -15 3 -8 15 -15 26 -15 11 0 20 -4 20 -10 0 -5 9 -10 19
-10 11 0 21 -6 23 -12 4 -10 165 -14 751 -16 l747 -3 0 136 0 135 -639 0
c-352 0 -646 3 -655 6 -14 5 -16 28 -16 145 l0 139 439 0 c242 0 446 3 455 6
12 4 16 20 16 55 l0 49 -646 0 -646 0 4 -243z"/>
<path d="M11323 1573 c-13 -2 -23 -9 -23 -14 0 -5 -18 -9 -40 -9 -22 0 -40 -4
-40 -10 0 -5 -13 -10 -30 -10 -28 0 -30 -2 -30 -40 0 -22 4 -40 9 -40 6 0 13
-20 16 -44 8 -53 14 -56 130 -48 l86 5 12 -32 c6 -17 15 -31 19 -31 4 0 12
-18 18 -40 12 -46 2 -64 -44 -76 -14 -3 -26 -10 -26 -15 0 -5 -9 -9 -19 -9
-24 0 -32 -19 -19 -43 9 -17 71 -80 112 -114 18 -15 36 -17 36 -4 0 5 16 12
35 15 19 4 35 11 35 16 0 6 9 10 20 10 11 0 20 5 20 10 0 6 7 10 15 10 8 0 15
-4 15 -10 0 -5 5 -10 10 -10 12 0 18 -4 69 -50 18 -16 37 -30 42 -30 16 0 10
-36 -10 -56 -47 -52 -50 -97 -6 -108 14 -4 25 -11 25 -16 0 -6 9 -10 21 -10
11 0 27 -7 35 -15 9 -9 34 -15 60 -15 38 0 46 4 56 25 6 14 15 25 19 25 5 0
20 11 34 25 14 14 25 21 25 15 0 -5 14 -10 30 -10 17 0 30 -4 30 -9 0 -5 27
-12 59 -16 36 -4 62 -12 65 -20 3 -8 0 -41 -6 -74 -6 -34 -9 -64 -5 -67 3 -4
47 -9 97 -12 49 -2 90 -9 90 -13 0 -5 9 -9 20 -9 11 0 20 5 20 10 0 6 7 10 15
10 10 0 17 14 21 40 11 70 28 80 133 80 105 0 113 -5 131 -70 6 -24 18 -49 25
-57 15 -14 55 -18 55 -4 0 4 37 11 82 14 48 4 85 12 90 19 5 7 6 34 2 60 -9
74 -2 85 61 93 30 3 55 11 55 16 0 5 11 9 25 9 14 0 25 5 25 10 0 19 25 10 45
-17 49 -65 65 -76 114 -70 25 3 47 10 49 16 2 6 12 11 23 11 10 0 19 4 19 10
0 5 16 12 35 16 39 7 52 32 34 66 -15 29 -29 42 -51 51 -23 8 -23 46 -1 54 10
4 28 17 41 30 13 13 29 23 37 23 8 0 15 5 15 10 0 6 7 10 15 10 8 0 15 5 15
10 0 6 9 10 20 10 11 0 20 -4 20 -10 0 -5 9 -10 20 -10 11 0 20 -4 20 -10 0
-5 16 -12 35 -16 19 -3 35 -10 35 -15 0 -5 7 -9 15 -9 8 0 15 4 15 9 0 5 9 12
19 16 11 3 23 14 26 24 3 11 21 35 40 56 37 39 45 65 20 65 -8 0 -15 4 -15 9
0 5 -14 11 -31 15 -47 9 -62 30 -54 76 4 22 13 43 20 47 7 5 15 24 19 43 3 19
3 29 0 23 -7 -16 -154 -18 -154 -3 0 6 -34 10 -82 10 -77 -1 -85 -3 -103 -26
-11 -14 -30 -37 -42 -51 -12 -14 -25 -34 -28 -44 -4 -11 -12 -19 -19 -19 -7 0
-22 -11 -32 -25 -10 -14 -24 -25 -30 -25 -7 0 -26 -13 -44 -30 -18 -16 -38
-30 -46 -30 -8 0 -14 -4 -14 -10 0 -5 -7 -10 -15 -10 -8 0 -15 -4 -15 -10 0
-5 -16 -12 -35 -16 -19 -3 -35 -10 -35 -15 0 -5 -9 -9 -20 -9 -11 0 -20 -4
-20 -10 0 -5 -9 -10 -20 -10 -11 0 -20 -4 -20 -10 0 -5 -27 -12 -60 -16 -33
-4 -60 -11 -60 -15 0 -5 -22 -9 -50 -9 -27 0 -50 -4 -50 -10 0 -6 -68 -10
-185 -10 -117 0 -185 4 -185 10 0 6 -18 10 -40 10 -22 0 -40 4 -40 9 0 4 -24
11 -52 14 -29 4 -54 11 -56 17 -2 5 -17 10 -33 10 -16 0 -29 5 -29 10 0 6 -7
10 -16 10 -8 0 -22 7 -30 15 -9 8 -24 15 -35 15 -10 0 -19 5 -19 10 0 6 -7 10
-15 10 -8 0 -15 4 -15 9 0 5 -12 12 -26 15 -14 4 -37 18 -50 31 -14 14 -31 25
-38 25 -7 0 -18 11 -24 25 -6 14 -18 25 -27 25 -8 0 -15 4 -15 9 0 5 -16 26
-35 47 -20 20 -38 48 -41 61 -4 12 -10 23 -15 23 -4 0 -14 19 -21 43 -6 23
-16 45 -21 48 -4 3 -11 28 -15 55 l-7 49 -160 1 c-88 1 -170 0 -182 -3z"/>
<path d="M11760 1555 c0 -14 4 -25 9 -25 5 0 11 -18 15 -40 3 -22 10 -40 15
-40 5 0 14 -13 19 -29 11 -30 25 -49 80 -109 17 -19 32 -39 32 -43 0 -5 6 -9
14 -9 8 0 16 -7 20 -15 3 -8 12 -15 21 -15 8 0 15 -4 15 -10 0 -5 6 -10 14
-10 8 0 16 -7 20 -15 3 -8 15 -15 26 -15 11 0 20 -4 20 -10 0 -5 7 -10 15 -10
8 0 15 -4 15 -9 0 -5 18 -12 40 -16 22 -4 40 -11 40 -16 0 -5 9 -9 20 -9 11 0
20 -4 20 -9 0 -5 27 -12 60 -16 33 -4 60 -11 60 -16 0 -5 29 -9 65 -9 37 0 65
-4 65 -10 0 -6 38 -10 95 -10 57 0 95 4 95 10 0 6 27 10 60 10 33 0 60 4 60 9
0 5 29 12 65 16 36 3 65 11 65 16 0 5 11 9 25 9 14 0 25 4 25 9 0 5 16 12 35
15 19 4 35 11 35 16 0 6 9 10 20 10 11 0 20 5 20 10 0 6 7 10 15 10 8 0 24 10
37 23 13 13 31 26 41 30 9 3 17 11 17 17 0 5 6 10 13 10 8 0 19 11 25 25 6 14
17 25 23 25 18 0 48 40 42 56 -6 16 -53 19 -53 4 0 -6 -31 -10 -74 -10 -68 0
-76 -2 -106 -30 -18 -16 -38 -30 -46 -30 -8 0 -14 -4 -14 -10 0 -5 -7 -10 -15
-10 -8 0 -15 -4 -15 -10 0 -5 -7 -10 -15 -10 -8 0 -15 -4 -15 -9 0 -5 -18 -12
-40 -16 -22 -4 -40 -11 -40 -16 0 -5 -11 -9 -24 -9 -13 0 -26 -6 -28 -12 -4
-10 -59 -13 -233 -13 -174 0 -229 3 -232 13 -3 6 -16 12 -29 12 -13 0 -24 5
-24 10 0 6 -11 10 -24 10 -14 0 -31 7 -40 15 -8 8 -22 15 -30 15 -9 0 -16 5
-16 10 0 6 -7 10 -15 10 -8 0 -15 5 -15 10 0 6 -7 10 -15 10 -9 0 -18 7 -21
15 -4 8 -12 15 -19 15 -7 0 -15 7 -19 15 -3 8 -12 15 -20 15 -8 0 -17 9 -21
19 -3 11 -12 22 -20 25 -8 3 -15 15 -15 26 0 11 -4 20 -9 20 -5 0 -15 16 -21
35 -6 19 -15 35 -20 35 -5 0 -10 12 -12 28 -3 27 -3 27 -90 30 l-88 3 0 -26z"/>
<path d="M2770 471 c0 -5 -22 -11 -50 -15 -27 -4 -50 -11 -50 -16 0 -6 -5 -10
-10 -10 -11 0 -32 -15 -53 -38 -7 -7 -20 -21 -29 -30 -10 -9 -20 -35 -24 -59
-3 -24 -10 -43 -15 -43 -5 0 -9 -11 -9 -25 0 -14 4 -25 9 -25 5 0 11 -17 15
-38 5 -34 21 -62 55 -97 21 -21 41 -35 51 -35 5 0 10 -4 10 -9 0 -5 33 -15 73
-22 95 -16 229 -1 255 28 9 11 25 22 35 26 9 3 17 11 17 17 0 5 7 10 15 10 8
0 15 7 15 16 0 9 7 22 16 28 33 25 27 216 -7 216 -5 0 -9 7 -9 15 0 8 -6 15
-14 15 -8 0 -16 7 -20 15 -3 8 -12 15 -20 15 -8 0 -17 9 -21 20 -5 15 -19 21
-56 26 -27 4 -49 10 -49 15 0 5 -29 9 -65 9 -36 0 -65 -4 -65 -9z m90 -81 c0
-5 12 -10 26 -10 14 0 32 -6 39 -12 33 -30 45 -38 53 -38 5 0 15 -21 21 -47
14 -52 -3 -143 -25 -143 -7 0 -24 -11 -38 -25 -16 -16 -36 -25 -56 -25 -16 0
-30 -4 -30 -10 0 -5 -9 -10 -20 -10 -11 0 -20 5 -20 10 0 6 -12 10 -26 10 -15
0 -34 8 -43 19 -9 10 -26 21 -38 25 -37 12 -56 102 -33 161 13 33 30 50 58 59
12 4 22 12 22 17 0 5 14 9 30 9 17 0 30 5 30 10 0 6 11 10 25 10 14 0 25 -4
25 -10z"/>
<path d="M6890 471 c0 -4 -20 -11 -45 -14 -29 -4 -55 -16 -71 -32 -14 -14 -31
-25 -39 -25 -8 0 -15 -4 -15 -10 0 -5 -10 -20 -22 -32 -21 -21 -23 -33 -23
-119 0 -76 3 -99 17 -112 9 -10 19 -26 23 -37 3 -10 16 -22 28 -26 12 -4 29
-15 38 -26 26 -29 158 -45 256 -31 43 6 79 16 81 22 2 6 10 11 17 11 23 0 22
24 -1 47 -13 13 -27 23 -33 23 -5 0 -12 6 -14 13 -4 9 -6 9 -6 0 -1 -7 -8 -13
-16 -13 -8 0 -15 -4 -15 -10 0 -5 -13 -10 -30 -10 -16 0 -30 -4 -30 -10 0 -5
-11 -10 -25 -10 -14 0 -25 5 -25 10 0 6 -13 10 -30 10 -16 0 -30 5 -30 10 0 6
-7 10 -15 10 -8 0 -15 5 -15 10 0 6 -6 10 -13 10 -7 0 -21 10 -32 23 -27 30
-28 135 -2 161 9 10 17 21 17 26 0 5 14 11 30 15 17 4 30 11 30 16 0 5 11 9
25 9 14 0 25 5 25 10 0 6 16 10 35 10 19 0 35 -4 35 -10 0 -5 11 -10 24 -10
13 0 26 -5 28 -11 7 -20 57 -13 78 11 37 43 23 66 -48 76 -28 3 -52 10 -52 15
0 5 -31 9 -70 9 -38 0 -70 -4 -70 -9z"/>
<path d="M8080 471 c0 -5 -22 -12 -48 -16 -31 -4 -54 -13 -63 -26 -7 -10 -18
-19 -23 -19 -16 0 -66 -63 -66 -82 0 -9 -6 -18 -12 -20 -16 -6 -18 -135 -3
-146 6 -4 16 -19 22 -34 14 -32 44 -68 57 -68 5 0 16 -9 25 -19 26 -30 150
-47 247 -33 43 6 80 15 82 21 2 6 8 11 14 11 5 0 16 6 23 13 33 29 45 37 55
37 5 0 10 9 10 19 0 11 5 23 10 26 6 3 10 15 10 26 0 10 5 19 10 19 6 0 10 27
10 60 0 33 -4 60 -8 60 -5 0 -15 18 -22 40 -7 22 -17 40 -22 40 -9 0 -24 11
-63 47 -13 13 -42 25 -64 29 -23 4 -41 10 -41 15 0 5 -31 9 -70 9 -38 0 -70
-4 -70 -9z m100 -81 c0 -5 11 -10 25 -10 14 0 25 -4 25 -10 0 -5 7 -10 15 -10
9 0 18 -7 21 -15 4 -8 12 -15 20 -15 7 0 16 -16 20 -35 3 -19 10 -35 15 -35 5
0 9 -11 9 -25 0 -14 -4 -25 -9 -25 -5 0 -11 -10 -15 -23 -6 -27 -50 -77 -66
-77 -5 0 -10 -4 -10 -10 0 -5 -16 -10 -35 -10 -19 0 -35 -4 -35 -10 0 -5 -9
-10 -20 -10 -11 0 -20 5 -20 10 0 6 -11 10 -25 10 -14 0 -25 5 -25 10 0 6 -7
10 -15 10 -8 0 -15 5 -15 10 0 6 -6 10 -13 10 -7 0 -21 10 -32 23 -27 30 -28
135 -2 161 9 10 17 21 17 26 0 5 14 11 30 15 17 4 30 11 30 16 0 5 9 9 20 9
11 0 20 5 20 10 0 6 16 10 35 10 19 0 35 -4 35 -10z"/>
<path d="M9180 471 c0 -5 -22 -11 -50 -15 -27 -4 -50 -11 -50 -16 0 -6 -6 -10
-14 -10 -8 0 -16 -7 -20 -15 -3 -8 -12 -15 -21 -15 -8 0 -15 -4 -15 -10 0 -5
-9 -18 -20 -28 -12 -11 -23 -38 -26 -68 -4 -27 -12 -52 -18 -56 -8 -5 -7 -8 2
-8 7 0 12 -12 12 -29 0 -34 19 -91 30 -91 5 0 12 -9 15 -20 3 -11 13 -20 21
-20 8 0 17 -7 20 -15 4 -8 12 -15 19 -15 7 0 15 -4 17 -10 2 -5 38 -15 82 -21
83 -13 238 1 244 21 2 6 10 10 17 10 7 0 15 7 19 15 3 8 12 15 20 15 8 0 18 9
21 20 3 11 10 20 15 20 4 0 13 23 20 50 7 28 16 50 21 50 5 0 9 11 9 25 0 14
-4 25 -10 25 -5 0 -10 9 -10 20 0 23 -20 70 -37 88 -7 7 -13 18 -13 23 0 5 -7
9 -15 9 -9 0 -18 7 -21 15 -4 8 -12 15 -20 15 -8 0 -14 4 -14 10 0 5 -22 12
-50 16 -27 4 -50 10 -50 15 0 5 -29 9 -65 9 -36 0 -65 -4 -65 -9z m90 -81 c0
-5 14 -10 30 -10 17 0 30 -4 30 -9 0 -5 10 -13 22 -17 28 -9 45 -26 58 -59 23
-59 4 -149 -33 -161 -12 -4 -29 -15 -38 -25 -9 -11 -30 -19 -48 -19 -17 0 -31
-4 -31 -10 0 -5 -9 -10 -20 -10 -11 0 -20 5 -20 10 0 6 -12 10 -26 10 -15 0
-34 8 -43 19 -9 10 -26 21 -38 25 -37 12 -56 102 -33 161 13 33 30 50 58 59
12 4 22 12 22 17 0 5 14 9 30 9 17 0 30 5 30 10 0 6 11 10 25 10 14 0 25 -4
25 -10z"/>
<path d="M9830 471 c0 -5 -18 -11 -40 -15 -22 -3 -40 -11 -40 -16 0 -6 -5 -10
-10 -10 -11 0 -31 -15 -50 -35 -45 -49 -60 -71 -60 -91 0 -13 -4 -24 -10 -24
-5 0 -10 -20 -10 -45 0 -25 5 -45 10 -45 6 0 10 -11 10 -25 0 -14 6 -28 14
-31 8 -3 20 -18 26 -34 7 -16 21 -32 31 -35 10 -4 19 -11 19 -16 0 -5 6 -9 14
-9 8 0 16 -5 18 -11 2 -6 38 -15 80 -21 90 -13 266 3 279 24 5 7 9 55 9 106
l0 92 -55 0 -55 0 0 -70 0 -70 -35 0 c-19 0 -35 -4 -35 -10 0 -5 -11 -10 -25
-10 -14 0 -25 5 -25 10 0 6 -13 10 -30 10 -16 0 -30 5 -30 10 0 6 -9 10 -20
10 -11 0 -20 3 -20 8 0 4 -11 20 -25 36 -20 24 -25 40 -25 87 0 38 5 61 14 66
7 4 18 18 25 31 6 12 18 22 26 22 8 0 15 5 15 10 0 6 11 10 25 10 14 0 25 5
25 10 0 6 16 10 35 10 19 0 35 -4 35 -10 0 -5 14 -10 30 -10 17 0 30 -4 30 -9
0 -5 11 -11 25 -14 19 -3 34 3 55 23 32 30 38 50 16 50 -8 0 -16 5 -18 11 -2
6 -25 13 -51 16 -26 3 -47 10 -47 14 0 5 -34 9 -75 9 -41 0 -75 -4 -75 -9z"/>
<path d="M10680 471 c0 -5 -20 -12 -45 -15 -25 -4 -45 -11 -45 -17 0 -5 -5 -9
-10 -9 -6 0 -21 -11 -34 -25 -13 -14 -28 -25 -33 -25 -5 0 -16 -18 -23 -40 -7
-22 -17 -40 -22 -40 -4 0 -8 -27 -8 -60 0 -33 4 -60 9 -60 5 0 12 -15 15 -34
7 -36 36 -76 55 -76 6 0 14 -7 17 -15 4 -8 12 -15 19 -15 7 0 15 -4 17 -10 2
-5 36 -15 75 -22 57 -9 93 -9 165 0 51 6 94 16 96 22 2 5 10 10 18 10 8 0 14
7 14 15 0 8 -7 15 -15 15 -8 0 -15 4 -15 8 0 13 -36 52 -46 52 -5 0 -16 -9
-24 -20 -9 -13 -26 -20 -47 -20 -18 0 -33 -4 -33 -10 0 -5 -9 -10 -20 -10 -11
0 -20 5 -20 10 0 6 -16 10 -35 10 -19 0 -35 5 -35 10 0 6 -5 10 -10 10 -16 0
-60 50 -66 77 -4 13 -10 23 -15 23 -5 0 -9 11 -9 25 0 14 4 25 9 25 5 0 12 16
15 35 4 19 13 35 20 35 8 0 16 7 20 15 3 8 12 15 21 15 8 0 15 5 15 10 0 6 11
10 25 10 14 0 25 5 25 10 0 6 16 10 35 10 19 0 35 -4 35 -10 0 -5 14 -10 30
-10 17 0 30 -4 30 -9 0 -13 34 -23 53 -15 9 3 19 14 22 25 4 10 13 19 21 19 8
0 14 7 14 15 0 8 -7 15 -15 15 -8 0 -15 4 -15 10 0 5 -22 12 -50 16 -27 4 -50
10 -50 15 0 5 -34 9 -75 9 -41 0 -75 -4 -75 -9z"/>
<path d="M80 235 l0 -225 55 0 55 0 0 225 0 225 -55 0 -55 0 0 -225z"/>
<path d="M330 235 l0 -225 55 0 55 0 0 225 0 225 -55 0 -55 0 0 -225z"/>
<path d="M580 235 l0 -225 50 0 50 0 0 225 0 225 -50 0 -50 0 0 -225z"/>
<path d="M1010 235 l0 -225 185 0 185 0 0 40 0 40 -130 0 -130 0 0 50 0 50
110 0 110 0 0 45 0 45 -110 0 -110 0 0 50 0 50 130 0 130 0 0 40 0 40 -185 0
-185 0 0 -225z"/>
<path d="M1462 445 c7 -8 22 -26 33 -41 11 -14 29 -37 40 -49 11 -13 29 -36
40 -50 11 -14 26 -32 33 -40 6 -7 12 -16 12 -20 0 -4 -6 -13 -12 -20 -7 -8
-22 -26 -33 -40 -11 -14 -29 -36 -40 -49 -11 -13 -29 -36 -39 -50 -11 -15 -28
-37 -38 -48 -10 -12 -18 -23 -18 -25 0 -10 121 -1 129 9 6 7 22 26 36 42 14
16 25 32 25 36 0 9 47 60 55 60 8 0 55 -51 55 -60 0 -4 11 -20 25 -36 14 -16
30 -35 36 -41 6 -8 35 -13 75 -13 62 0 64 1 54 21 -7 11 -19 28 -28 38 -9 10
-26 31 -37 46 -11 16 -32 41 -47 57 -58 59 -59 83 -5 140 18 19 43 50 57 68
14 18 33 42 43 53 9 11 17 22 17 24 0 1 -27 3 -59 3 -61 0 -65 -2 -106 -56
-38 -49 -62 -74 -74 -74 -6 0 -11 3 -11 8 0 4 -10 19 -23 33 -12 15 -33 40
-46 58 -23 29 -27 31 -93 31 -61 0 -68 -2 -56 -15z"/>
<path d="M2050 236 l0 -226 55 0 55 0 0 75 0 75 85 0 c47 0 85 4 85 9 0 5 18
11 40 15 22 3 40 11 40 16 0 6 5 10 10 10 25 0 52 44 57 94 5 52 5 53 -42 102
l-48 49 -169 3 -168 4 0 -226z m250 154 c0 -5 7 -10 15 -10 8 0 15 -4 15 -10
0 -5 6 -10 14 -10 8 0 17 -11 20 -24 6 -26 -1 -56 -14 -56 -5 0 -12 -9 -15
-20 -6 -18 -15 -20 -91 -20 l-84 0 0 80 0 80 70 0 c40 0 70 -4 70 -10z"/>
<path d="M3230 235 l0 -225 55 0 55 0 0 84 c0 67 3 85 16 90 9 3 58 6 110 6
l94 0 0 35 0 35 -96 0 c-112 0 -124 7 -124 74 l0 46 125 0 125 0 0 40 0 40
-180 0 -180 0 0 -225z"/>
<path d="M3700 235 l0 -225 185 0 185 0 0 40 0 40 -130 0 -130 0 0 50 0 50
110 0 110 0 0 45 0 45 -110 0 -110 0 0 50 0 50 130 0 130 0 0 40 0 40 -185 0
-185 0 0 -225z"/>
<path d="M4160 236 l0 -226 55 0 55 0 0 85 0 85 45 0 c25 0 45 -4 45 -9 0 -6
11 -22 25 -37 14 -15 28 -38 31 -51 4 -13 9 -23 13 -23 4 0 13 -11 19 -25 11
-23 17 -25 77 -25 59 0 65 2 51 15 -8 8 -18 25 -22 37 -7 23 -10 28 -49 72
-26 30 -33 56 -14 56 9 0 49 39 87 84 14 18 16 86 2 86 -5 0 -12 11 -16 25 -3
14 -11 25 -16 25 -6 0 -19 10 -30 23 -19 21 -28 22 -189 26 l-169 3 0 -226z
m250 154 c0 -5 5 -10 11 -10 34 0 48 -49 27 -95 -11 -24 -15 -25 -95 -25 l-83
0 0 70 0 70 70 0 c40 0 70 -4 70 -10z"/>
<path d="M4710 235 l0 -225 55 0 55 0 0 225 0 225 -55 0 -55 0 0 -225z"/>
<path d="M5117 453 c-4 -3 -7 -15 -7 -25 0 -10 -4 -18 -8 -18 -5 0 -15 -18
-22 -40 -7 -22 -16 -40 -20 -40 -5 0 -14 -20 -21 -45 -7 -25 -16 -45 -20 -45
-3 0 -12 -18 -19 -40 -7 -22 -16 -40 -21 -40 -4 0 -10 -11 -13 -25 -4 -14 -11
-25 -16 -25 -6 0 -10 -9 -10 -19 0 -11 -4 -23 -10 -26 -5 -3 -10 -15 -10 -25
0 -10 -6 -21 -12 -23 -7 -3 17 -6 54 -6 66 -1 66 -1 73 28 14 63 31 71 155 71
103 0 114 -2 131 -22 11 -11 19 -27 19 -35 0 -7 5 -13 10 -13 6 0 10 -7 10
-15 0 -12 13 -15 60 -15 47 0 60 3 60 15 0 8 -4 15 -10 15 -5 0 -15 19 -22 42
-6 24 -17 46 -24 50 -6 4 -15 24 -18 43 -4 19 -11 35 -16 35 -5 0 -15 19 -22
43 -6 23 -18 46 -25 50 -7 4 -13 16 -13 26 0 11 -6 21 -14 24 -7 3 -16 19 -19
36 -12 56 -34 71 -108 71 -36 0 -69 -3 -72 -7z m83 -108 c0 -8 5 -15 10 -15 6
0 10 -6 10 -14 0 -8 6 -21 13 -28 8 -7 17 -25 20 -40 4 -14 10 -33 13 -42 5
-14 -5 -16 -76 -16 -80 0 -81 0 -74 23 4 12 10 24 13 27 4 3 13 24 21 48 7 23
17 42 22 42 4 0 8 7 8 15 0 8 5 15 10 15 6 0 10 -7 10 -15z"/>
<path d="M5710 420 l0 -40 85 0 85 0 0 -185 0 -185 55 0 55 0 0 185 0 185 80
0 80 0 0 40 0 40 -220 0 -220 0 0 -40z"/>
<path d="M6250 235 l0 -225 175 0 175 0 0 40 0 40 -130 0 -130 0 0 50 0 50
115 0 115 0 0 45 0 45 -101 0 c-114 0 -129 7 -129 64 l0 36 130 0 130 0 0 40
0 40 -175 0 -175 0 0 -225z"/>
<path d="M7250 235 l0 -225 50 0 50 0 0 150 c0 123 3 150 14 150 16 0 46 -26
46 -39 0 -5 10 -20 23 -34 12 -14 37 -42 54 -64 31 -36 40 -47 88 -109 41 -52
45 -54 111 -54 l64 0 0 225 0 225 -57 0 -58 0 3 -150 c2 -82 0 -150 -4 -150
-8 0 -62 57 -89 95 -11 15 -29 38 -40 51 -11 13 -29 34 -40 48 -11 14 -30 38
-43 53 -12 16 -27 34 -33 41 -6 7 -35 12 -74 12 l-65 0 0 -225z"/>
<path d="M8550 235 l0 -225 190 0 190 0 0 40 0 40 -135 0 -135 0 0 185 0 185
-55 0 -55 0 0 -225z"/>
<path d="M10240 235 l0 -225 55 0 55 0 0 225 0 225 -55 0 -55 0 0 -225z"/>
<path d="M11206 445 c-8 -9 -18 -31 -22 -50 -3 -18 -12 -36 -20 -39 -8 -3 -14
-15 -14 -26 0 -11 -4 -20 -8 -20 -5 0 -15 -18 -22 -40 -7 -22 -17 -40 -22 -40
-4 0 -8 -9 -8 -19 0 -11 -4 -23 -10 -26 -5 -3 -10 -15 -10 -26 0 -10 -4 -19
-8 -19 -5 0 -15 -18 -22 -40 -7 -22 -16 -40 -20 -40 -4 0 -10 -11 -12 -25 -5
-24 -3 -25 49 -25 52 0 55 2 66 30 6 17 15 30 19 30 4 0 8 9 8 20 0 19 7 20
130 20 l130 0 6 -25 c3 -14 10 -25 14 -25 5 0 10 -10 12 -22 3 -21 9 -23 64
-26 l61 -3 -5 26 c-2 15 -10 29 -17 32 -7 2 -16 20 -19 39 -4 19 -11 34 -16
34 -5 0 -15 19 -22 43 -6 23 -17 45 -24 49 -6 4 -15 24 -18 43 -4 19 -11 35
-16 35 -5 0 -15 19 -22 43 -6 23 -18 46 -25 50 -7 4 -13 16 -13 26 0 25 -19
31 -90 31 -39 0 -64 -5 -74 -15z m97 -112 c6 -16 14 -30 17 -33 3 -3 12 -24
18 -47 7 -24 17 -43 22 -43 6 0 10 -4 10 -10 0 -6 -35 -10 -85 -10 -78 0 -85
2 -85 20 0 11 4 20 8 20 5 0 15 18 22 40 7 22 17 40 22 40 4 0 8 8 8 18 0 40
26 43 43 5z"/>
<path d="M11850 309 c0 -91 5 -168 12 -193 12 -40 39 -76 57 -76 5 0 11 -5 13
-11 2 -6 37 -15 79 -21 98 -14 215 3 224 33 4 10 13 19 21 19 8 0 14 7 14 15
0 8 4 15 9 15 21 0 31 72 31 216 l0 154 -55 0 -55 0 0 -144 c0 -145 -11 -206
-36 -206 -8 0 -14 -4 -14 -10 0 -5 -9 -10 -20 -10 -11 0 -20 -4 -20 -10 0 -5
-13 -10 -30 -10 -16 0 -30 5 -30 10 0 6 -9 10 -20 10 -11 0 -20 5 -20 10 0 6
-6 10 -14 10 -25 0 -36 61 -36 206 l0 144 -55 0 -55 0 0 -151z"/>
<path d="M12440 235 l0 -225 58 0 57 0 -3 150 c-3 98 0 150 6 150 12 0 42 -28
42 -39 0 -5 15 -24 33 -43 17 -19 43 -50 57 -68 14 -18 32 -41 40 -51 8 -11
24 -31 35 -45 41 -52 45 -54 111 -54 l64 0 0 225 0 225 -55 0 -55 0 0 -150 c0
-82 -3 -150 -6 -150 -8 0 -63 58 -89 95 -11 15 -29 38 -40 51 -11 13 -29 36
-40 50 -11 14 -30 37 -43 52 -12 15 -27 33 -33 40 -6 7 -35 12 -74 12 l-65 0
0 -225z"/>
<path d="M13237 454 c-4 -4 -7 -16 -7 -26 0 -10 -7 -21 -15 -24 -8 -4 -15 -14
-15 -24 0 -11 -4 -22 -10 -25 -5 -3 -10 -15 -10 -26 0 -10 -4 -19 -9 -19 -5 0
-12 -11 -15 -25 -4 -14 -11 -25 -16 -25 -5 0 -12 -16 -16 -36 -4 -19 -12 -38
-19 -40 -7 -3 -16 -21 -19 -39 -4 -19 -13 -41 -20 -48 -8 -8 -19 -30 -24 -50
l-10 -37 48 0 c50 0 80 17 80 46 0 8 5 14 10 14 6 0 10 9 10 20 0 19 7 20 130
20 l129 0 13 -43 c6 -23 17 -45 23 -49 5 -4 35 -8 67 -8 53 0 56 1 50 23 -3
12 -11 25 -17 29 -7 4 -16 24 -19 43 -4 19 -11 35 -16 35 -5 0 -12 11 -16 25
-3 14 -10 25 -15 25 -5 0 -9 9 -9 19 0 11 -4 23 -10 26 -5 3 -10 15 -10 26 0
10 -4 19 -8 19 -5 0 -15 18 -22 40 -7 22 -17 40 -22 40 -4 0 -8 9 -8 20 0 10
-6 23 -14 27 -8 4 -15 17 -17 28 -4 17 -13 20 -75 23 -38 1 -73 0 -77 -4z
m105 -148 c7 -22 15 -43 18 -46 6 -5 30 -58 30 -65 0 -3 -37 -5 -81 -5 l-81 0
6 31 c3 16 13 37 21 45 8 9 15 22 15 30 0 8 5 14 10 14 6 0 10 8 10 18 0 48
36 33 52 -22z"/>
<path d="M13860 291 c0 -93 -3 -176 -6 -185 -3 -9 -15 -16 -25 -16 -10 0 -19
-4 -19 -10 0 -5 -11 -10 -25 -10 -14 0 -25 5 -25 10 0 6 -9 10 -19 10 -11 0
-22 6 -25 13 -5 9 -7 9 -12 0 -3 -7 -10 -13 -15 -13 -5 0 -18 -9 -30 -21 l-20
-20 21 -19 c29 -25 137 -36 205 -21 40 9 55 18 64 37 7 16 11 95 11 219 l0
195 -40 0 -40 0 0 -169z"/>
</g>
</svg>
