<?xml version="1.0" standalone="no"?>
<!DOCTYPE svg PUBLIC "-//W3C//DTD SVG 20010904//EN"
 "http://www.w3.org/TR/2001/REC-SVG-20010904/DTD/svg10.dtd">
<svg version="1.0" xmlns="http://www.w3.org/2000/svg"
 width="425.000000pt" height="197.000000pt" viewBox="0 0 425.000000 197.000000"
 preserveAspectRatio="xMidYMid meet">
<metadata>
Created by potrace 1.16, written by Peter Selinger 2001-2019
</metadata>
<g transform="translate(0.000000,197.000000) scale(0.100000,-0.100000)"
fill="#000000" stroke="none">
<path d="M517 1381 c-48 -51 -71 -108 -65 -164 1 -21 -2 -31 -10 -30 -7 2 -12
0 -12 -5 0 -14 31 -52 42 -52 6 0 26 -13 45 -30 32 -28 38 -30 120 -30 80 0
89 2 114 26 15 15 38 32 50 38 29 15 49 47 32 53 -8 3 -13 22 -13 46 0 48 -27
113 -59 141 -11 11 -21 27 -21 38 0 16 -9 18 -89 18 l-88 0 -46 -49z"/>
<path d="M1294 1418 c-126 -33 -139 -244 -18 -294 43 -18 74 -18 124 2 55 22
80 66 80 138 0 92 -35 140 -111 154 -24 5 -58 5 -75 0z m87 -61 c42 -32 51
-102 19 -154 -17 -28 -25 -33 -59 -33 -54 0 -81 34 -81 102 0 39 5 54 25 73
26 27 70 32 96 12z"/>
<path d="M1916 1415 c-75 -26 -101 -71 -93 -160 6 -77 26 -109 83 -131 106
-40 204 27 204 139 0 57 -23 112 -57 134 -36 24 -96 32 -137 18z m91 -60 c45
-31 48 -140 5 -172 -24 -20 -79 -16 -102 7 -77 77 10 226 97 165z"/>
<path d="M900 1270 l0 -150 24 -6 c38 -9 46 2 46 67 0 52 2 59 19 59 11 0 36
-20 57 -47 21 -27 46 -56 57 -65 19 -18 67 -25 67 -10 0 10 -48 81 -74 110
l-20 23 22 6 c23 6 52 49 52 77 0 31 -24 65 -53 76 -16 5 -68 10 -113 10 l-84
0 0 -150z"/>
<path d="M1530 1271 c0 -83 3 -152 8 -154 4 -2 51 -1 105 2 88 5 101 9 118 30
25 30 24 79 -1 106 -19 21 -19 23 -4 55 15 30 15 36 3 59 -22 39 -56 51 -146
51 l-83 0 0 -149z"/>
<path d="M2130 1395 c0 -23 4 -25 45 -25 l44 0 3 -127 3 -128 27 -3 27 -3 3
128 3 128 43 3 c37 3 42 6 42 28 l0 24 -120 0 -120 0 0 -25z"/>
<path d="M2404 1407 c-2 -7 -3 -73 -2 -146 3 -110 6 -136 19 -144 9 -6 24 -7
33 -4 14 6 16 27 16 157 l0 150 -30 0 c-17 0 -33 -6 -36 -13z"/>
<path d="M2579 1403 c-81 -50 -88 -203 -12 -263 54 -42 143 -34 183 17 26 33
25 52 -2 62 -19 7 -27 4 -46 -20 -29 -36 -72 -39 -102 -7 -28 31 -28 115 1
152 27 34 70 35 96 2 15 -18 26 -23 46 -19 36 7 34 28 -4 64 -26 24 -39 29
-83 29 -29 0 -62 -7 -77 -17z"/>
<path d="M2846 1395 c-31 -28 -34 -72 -8 -104 9 -12 46 -32 82 -44 45 -15 66
-28 68 -41 9 -42 -77 -52 -104 -11 -11 17 -25 25 -45 25 -33 0 -35 -9 -14 -50
41 -80 185 -79 219 1 27 64 -6 107 -100 135 -60 17 -71 28 -54 49 18 22 67 19
82 -5 8 -12 24 -20 40 -20 23 0 28 4 28 24 0 40 -43 66 -110 66 -47 0 -62 -4
-84 -25z"/>
<path d="M3105 1408 c-3 -8 -4 -77 -3 -153 l3 -140 105 0 105 0 3 28 3 27 -75
0 -75 0 -3 123 -3 122 -28 3 c-16 2 -29 -2 -32 -10z"/>
<path d="M3387 1274 c-59 -152 -61 -172 -14 -160 16 4 27 16 33 38 9 32 12 33
67 36 l56 3 18 -38 c18 -37 55 -56 73 -36 5 4 -18 73 -50 153 -58 145 -58 145
-92 148 l-34 3 -57 -147z"/>
<path d="M3660 1271 c0 -86 4 -152 10 -156 5 -3 51 -3 102 1 77 6 96 11 115
30 29 29 30 80 3 109 -19 21 -19 23 -4 55 15 30 15 36 3 59 -22 39 -56 51
-146 51 l-83 0 0 -149z"/>
<path d="M308 1034 c-34 -18 -58 -62 -58 -107 l0 -34 80 0 79 1 21 47 c11 26
20 54 20 63 0 41 -88 60 -142 30z"/>
<path d="M852 1034 c-27 -19 -27 -33 -2 -92 l21 -47 74 -1 c60 -1 74 2 78 16
17 64 -43 140 -111 140 -21 0 -48 -7 -60 -16z"/>
<path d="M521 1013 c-34 -28 -111 -226 -111 -284 l0 -49 220 0 c121 0 223 1
228 3 20 6 4 108 -32 202 -52 138 -62 145 -185 145 -79 0 -103 -3 -120 -17z"/>
<path d="M290 832 c-19 -19 -32 -47 -40 -86 -6 -32 -9 -60 -6 -63 3 -3 31 -6
63 -6 l58 0 6 79 c5 65 4 81 -9 92 -24 18 -41 15 -72 -16z"/>
<path d="M912 852 c-9 -6 -10 -29 -5 -91 l8 -83 53 -2 54 -1 -4 68 c-3 50 -9
72 -23 86 -24 23 -65 35 -83 23z"/>
</g>
</svg>
